<svg id="aquarelle.svg" fill="rgba(0, 0, 0, 0.75)" xmlns="http://www.w3.org/2000/svg" viewBox="0 0 107.97 109.15"><title>aquarelle</title>
    <path d="M105.9,107.17a4.21,4.21,0,0,1-1.41.27l-2.26.21c-1.56.14-3.13.27-4.69.39q-5,.36-10.08.59-5.5.25-11,.37-6,.14-12,.15c-3.14,0-6.29,0-9.44-.05q-8.36-.06-26.2-.36-17.17-.4-26.19-.45-1.41-6.83-1-20.94Q2.18,69,1.91,63.69a3.62,3.62,0,0,1,3.21-3.58q3.75-.7,4.41-1.38c-.3-.92-1.82-1.79-4.57-2.59s-4.4-2.19-5-4q.51-5.74.06-25.73-.34-15.64,1.81-25C56.79.14,91.33-1,106.72,1.48c1.68,22.89,1.5,42.1.49,52.86q-1,1.42-4,2c-2.2.35-3.63.88-4.3,1.59,0,1.34,1,2,2.85,2.11q3.42.13,4.41,1.73.39,6,.11,24c0,3.74,0,7.49.09,11.23a66.18,66.18,0,0,0,.58,7.45c0,.19.08.4.09.59a5.15,5.15,0,0,1-.62,1.66A1.52,1.52,0,0,1,105.9,107.17ZM104.69,3.75Q96.58,2,53.77,2.18,9.25,2.42,3.22,4.07-.17,20.9,2.42,53.82A859.35,859.35,0,0,0,105.54,54Q109.17,18.42,104.69,3.75ZM19.69,67a8,8,0,0,0-5-2.6,7.44,7.44,0,0,0-5.5,1.5,9.67,9.67,0,0,0-3.26,6.5q1.88,6.57,8.5,6.24a7.7,7.7,0,0,0,4.67-1.69,6.32,6.32,0,0,0,2.39-4.32A7,7,0,0,0,19.69,67Zm-.4,18.42a8.34,8.34,0,0,0-5.08-2.07,7.51,7.51,0,0,0-5.32,1.72,9.13,9.13,0,0,0-3,6.19A9.15,9.15,0,0,0,9.7,96.33,8,8,0,0,0,15,97.62a7.32,7.32,0,0,0,4.73-2.14,6.65,6.65,0,0,0,1.92-5.06A6.38,6.38,0,0,0,19.29,85.41ZM85,58.19q-42-3.31-61.57.4Q61.94,62.57,85,58.19Zm-53.33,21c2.43.06,4.91-1.21,7.47-3.8s3.57-5,3-7q-.85-3.68-8.46-2.93-4.63.42-5.42.88c-1.4.84-1.94,3-1.6,6.42C27.11,77,28.77,79.1,31.67,79.15Zm-2.21,17a7.65,7.65,0,0,0,4.95,1.49,8.9,8.9,0,0,0,5-1.61,6.24,6.24,0,0,0,2.82-4.31,7.67,7.67,0,0,0-2.45-5.6,7.93,7.93,0,0,0-5.18-2.36,6.86,6.86,0,0,0-5.23,1.65,8.5,8.5,0,0,0-2.72,6.16A6.57,6.57,0,0,0,29.46,96.15ZM60.08,66.64A7.63,7.63,0,0,0,55,64.46a7.14,7.14,0,0,0-5.33,1.82,9.24,9.24,0,0,0-3,6.45,8.54,8.54,0,0,0,3.7,4.78,8.41,8.41,0,0,0,5.27,1.2,8.21,8.21,0,0,0,4.72-2,6.37,6.37,0,0,0,2.09-4.75A6.75,6.75,0,0,0,60.08,66.64ZM49.63,96.15a9,9,0,0,0,5.21,1.64,7.3,7.3,0,0,0,5-1.72,7.2,7.2,0,0,0,2.52-5.29,7.87,7.87,0,0,0-2.85-5.23,7.73,7.73,0,0,0-5.13-1.71,7.07,7.07,0,0,0-5.13,2,8.51,8.51,0,0,0-2.6,5.82A6.78,6.78,0,0,0,49.63,96.15Zm26.3-17.39q6.12-.27,6.46-7.88a7.08,7.08,0,0,0-3.15-4.66,8.55,8.55,0,0,0-5.37-1.49A6.3,6.3,0,0,0,69,67.1q-2.07,2.55-1.76,7A8.88,8.88,0,0,0,75.93,78.76Zm-2.36,5.69q-6.63,1.33-6.46,5.31c.11,2.29,1.61,4.43,4.48,6.42s5.4,2.64,7.6,1.91q3.91-1.4,3.23-8.33T73.57,84.45ZM89.7,76.94A8.38,8.38,0,0,0,94.78,79a7.1,7.1,0,0,0,5.3-1.63,9,9,0,0,0,3.09-6.26,8.6,8.6,0,0,0-3.68-5,8.85,8.85,0,0,0-5.26-1.29A7.32,7.32,0,0,0,89.5,67a6.68,6.68,0,0,0-2,5A6.59,6.59,0,0,0,89.7,76.94Zm11.07,8.92a7.69,7.69,0,0,0-5.14-2.17A7.37,7.37,0,0,0,90.3,85.5a9.28,9.28,0,0,0-3,6.46A8.5,8.5,0,0,0,91,96.82,8.36,8.36,0,0,0,96.22,98a7.34,7.34,0,0,0,4.71-2,7,7,0,0,0-.16-10.21Z"/>
    <path d="M10.44,25.63h2v8.73h-2v-.91a3.88,3.88,0,0,1-2.67,1.16,3.84,3.84,0,0,1-3-1.31A4.87,4.87,0,0,1,3.62,30,4.72,4.72,0,0,1,4.79,26.7a3.77,3.77,0,0,1,2.93-1.31,3.68,3.68,0,0,1,2.72,1.26ZM5.67,30a3.06,3.06,0,0,0,.67,2,2.2,2.2,0,0,0,1.73.8A2.32,2.32,0,0,0,9.88,32a3.32,3.32,0,0,0,0-4.05,2.28,2.28,0,0,0-1.79-.78A2.2,2.2,0,0,0,6.36,28,2.9,2.9,0,0,0,5.67,30Z"/>
    <path d="M21.41,55.35v-22a3.8,3.8,0,0,1-5.66-.07A4.72,4.72,0,0,1,14.58,30a4.84,4.84,0,0,1,1.17-3.32,3.79,3.79,0,0,1,3-1.33,3.74,3.74,0,0,1,2.7,1.19v-.95h2V55.35ZM16.64,30A3,3,0,0,0,17.32,32a2.14,2.14,0,0,0,1.72.81,2.31,2.31,0,0,0,1.8-.77,3.32,3.32,0,0,0,0-4.05,2.25,2.25,0,0,0-1.78-.78,2.2,2.2,0,0,0-1.73.79A2.87,2.87,0,0,0,16.64,30Z"/>
    <path d="M28.18,25.63v5c0,1.45.56,2.17,1.7,2.17s1.71-.72,1.71-2.17v-5h2v5.06a5.76,5.76,0,0,1-.26,1.81,3.07,3.07,0,0,1-.87,1.22,4.2,4.2,0,0,1-5.17,0,3,3,0,0,1-.88-1.22,5,5,0,0,1-.25-1.81V25.63Z"/><path d="M42.54,25.63h2v8.73h-2v-.91a3.85,3.85,0,0,1-5.65-.15A4.87,4.87,0,0,1,35.72,30a4.72,4.72,0,0,1,1.17-3.27,3.78,3.78,0,0,1,2.93-1.31,3.68,3.68,0,0,1,2.72,1.26ZM37.77,30a3.06,3.06,0,0,0,.67,2,2.21,2.21,0,0,0,1.74.8A2.31,2.31,0,0,0,42,32,3.32,3.32,0,0,0,42,28a2.27,2.27,0,0,0-1.79-.78,2.21,2.21,0,0,0-1.73.79A2.9,2.9,0,0,0,37.77,30Z"/><path d="M47.1,25.63h2v.78a3.9,3.9,0,0,1,1-.8,2.37,2.37,0,0,1,1-.22,3.24,3.24,0,0,1,1.67.52l-.92,1.85a1.93,1.93,0,0,0-1.12-.42c-1.1,0-1.64.83-1.64,2.49v4.53h-2Z"/><path d="M61.73,30.47H55.5a2.62,2.62,0,0,0,.7,1.71,2.1,2.1,0,0,0,1.58.63A2,2,0,0,0,59,32.45a5.17,5.17,0,0,0,1.1-1.32l1.69.94A6.78,6.78,0,0,1,61,33.23a4.19,4.19,0,0,1-.93.78,3.89,3.89,0,0,1-1.09.46,5.44,5.44,0,0,1-1.25.14,4.12,4.12,0,0,1-3.13-1.25A4.71,4.71,0,0,1,53.4,30a4.89,4.89,0,0,1,1.14-3.36,4,4,0,0,1,3.06-1.26,3.88,3.88,0,0,1,3,1.23A4.83,4.83,0,0,1,61.74,30Zm-2.06-1.65a1.93,1.93,0,0,0-2-1.61,2.15,2.15,0,0,0-.68.11,2.1,2.1,0,0,0-.59.32,2,2,0,0,0-.45.51,2.38,2.38,0,0,0-.29.67Z"/><path d="M65.94,1.83V34.36h-2V1.83Z"/><path d="M70.49,1.83V34.36h-2V1.83Z"/><path d="M81,30.47H74.73a2.62,2.62,0,0,0,.69,1.71,2.12,2.12,0,0,0,1.58.63,2,2,0,0,0,1.24-.36,5,5,0,0,0,1.1-1.32l1.7.94a6.78,6.78,0,0,1-.83,1.16,4.24,4.24,0,0,1-.94.78,3.71,3.71,0,0,1-1.08.46,5.59,5.59,0,0,1-1.26.14,4.08,4.08,0,0,1-3.12-1.25A4.71,4.71,0,0,1,72.63,30a4.89,4.89,0,0,1,1.14-3.36,4,4,0,0,1,3-1.26,3.9,3.9,0,0,1,3,1.23A4.83,4.83,0,0,1,81,30ZM78.9,28.82a1.93,1.93,0,0,0-2-1.61,2.22,2.22,0,0,0-.69.11,2,2,0,0,0-.58.32,1.84,1.84,0,0,0-.45.51,2.38,2.38,0,0,0-.29.67Z"/><path d="M83.47,33.36a1.25,1.25,0,0,1,1.24-1.24A1.26,1.26,0,0,1,86,33.37a1.24,1.24,0,0,1-2.12.88A1.21,1.21,0,0,1,83.47,33.36Z"/><path d="M90.81,25.63v5c0,1.45.57,2.17,1.7,2.17s1.71-.72,1.71-2.17v-5h2v5.06A5.76,5.76,0,0,1,96,32.5a3.07,3.07,0,0,1-.87,1.22,4.2,4.2,0,0,1-5.17,0,3.09,3.09,0,0,1-.88-1.22,5,5,0,0,1-.25-1.81V25.63Z"/><path d="M103.82,27.12l-1.66.89c-.26-.54-.59-.81-1-.81a.67.67,0,0,0-.47.18.63.63,0,0,0-.2.47c0,.34.39.67,1.17,1a7,7,0,0,1,2.15,1.27,2.18,2.18,0,0,1,.55,1.57,2.73,2.73,0,0,1-.93,2.11,3.31,3.31,0,0,1-5.27-1.33l1.71-.8a4,4,0,0,0,.54.8,1.25,1.25,0,0,0,.88.34q1,0,1-.93c0-.36-.26-.7-.79-1l-.61-.29-.61-.3a3.47,3.47,0,0,1-1.23-.86,2.07,2.07,0,0,1-.46-1.4,2.51,2.51,0,0,1,.78-1.89,2.74,2.74,0,0,1,1.93-.74A2.63,2.63,0,0,1,103.82,27.12Z"/></svg>