<?xml version="1.0" encoding="UTF-8"?><svg id="b" xmlns="http://www.w3.org/2000/svg" viewBox="0 0 88.05 111.03"><defs><style>.d{fill:#231f20;}</style></defs><g id="c"><path class="d" d="M0,14.28v-.45c.2-.2.5-.62.9-1.27.4-.65.7-1.07.9-1.27.2-.1.35-.15.45-.15.2.1.35.15.45.15,1.2,1.1,2.42,2.33,3.67,3.67,1.25,1.35,2.48,2.75,3.67,4.2,1.2,1.45,2.35,2.83,3.45,4.12,1.1,1.3,2.1,2.45,3,3.45.1.4.15.7.15.9,0,1.2-.45,1.8-1.35,1.8h-.6L0,14.58v-.3ZM0,97.68v-.45l14.7-14.55c.2-.1.4-.15.6-.15.9,0,1.35.65,1.35,1.95,0,.2-.03.35-.07.45-.05.1-.08.2-.08.3l-10.35,12-3.45,3.6c-.2-.2-.65-.62-1.35-1.27-.7-.65-1.15-1.07-1.35-1.27v-.6ZM6.9,34.08h22.35l2.7-5.7h31.8c.1,0,.23.13.38.38.15.25.32.48.52.67l1.8,3.3c.2.2.45.65.75,1.35h8.55v42.6H6.9v-42.6ZM21.45,3.03c0-.1.05-.25.15-.45l.75-.75c.4-.4.9-.82,1.5-1.27.6-.45,1-.62,1.2-.52.1,0,.35.3.75.9.4.6.75,1.15,1.05,1.65l8.55,15.6c.1.3.15.55.15.75,0,1.2-.65,1.8-1.95,1.8h-.75L21.6,3.63c-.1-.3-.15-.5-.15-.6ZM21.45,108.93l.15-.45,11.25-17.1c.3-.1.55-.15.75-.15.5,0,.95.07,1.35.22.4.15.6.53.6,1.12,0,.1-.03.18-.07.23-.05.05-.08.13-.08.23-.3.5-.8,1.45-1.5,2.85-.7,1.4-1.48,2.88-2.32,4.42-.85,1.55-1.65,3.03-2.4,4.43-.75,1.4-1.27,2.4-1.57,3,0,.2-.35.8-1.05,1.8-.7,1-1.35,1.5-1.95,1.5-.5,0-1.15-.2-1.95-.6-.8-.4-1.2-.9-1.2-1.5ZM31.8,54.18c0,4.7,1.55,8.5,4.65,11.4,3.1,2.9,6.9,4.35,11.4,4.35s8.55-1.42,11.55-4.27,4.5-6.67,4.5-11.48-1.5-8.32-4.5-11.17-6.85-4.27-11.55-4.27-8.55,1.42-11.55,4.27-4.5,6.58-4.5,11.17ZM34.35,54.18c0-3.8,1.3-6.92,3.9-9.38,2.6-2.45,5.8-3.67,9.6-3.67,1.8,0,3.5.33,5.1.98,1.6.65,3.02,1.53,4.27,2.62,1.25,1.1,2.25,2.43,3,3.97.75,1.55,1.12,3.23,1.12,5.03,0,4.1-1.23,7.38-3.68,9.82-2.45,2.45-5.73,3.68-9.82,3.68-3.6,0-6.75-1.22-9.45-3.68-2.7-2.45-4.05-5.57-4.05-9.38ZM50.7,19.38l.15-.45c.3-.5.8-1.45,1.5-2.85.7-1.4,1.47-2.87,2.32-4.42.85-1.55,1.65-3.02,2.4-4.42.75-1.4,1.27-2.35,1.57-2.85.2-.5.62-1.22,1.27-2.18.65-.95,1.12-1.67,1.43-2.17,0,.1.2.25.6.45.4.2.8.43,1.2.67.4.25.77.55,1.12.9.35.35.52.68.52.98,0,.1-.05.3-.15.6l-11.25,17.1h-.6c-.5,0-.97-.08-1.42-.23s-.67-.52-.67-1.12ZM50.85,93.03c0-.1-.03-.17-.08-.23-.05-.05-.07-.12-.07-.23,0-.6.22-.97.67-1.12.45-.15.92-.22,1.42-.22.2,0,.4.05.6.15l11.25,17.1.15.45c0,.6-.4,1.1-1.2,1.5-.8.4-1.45.6-1.95.6-.6,0-1.2-.5-1.8-1.5-.6-1-1-1.6-1.2-1.8-.3-.6-.82-1.6-1.57-3-.75-1.4-1.55-2.87-2.4-4.43-.85-1.55-1.63-3.02-2.32-4.42-.7-1.4-1.2-2.35-1.5-2.85ZM69.6,27.63c0-.2.05-.5.15-.9l10.5-12.15,3.3-3.3c.3-.1.5-.15.6-.15.8,0,1.37.3,1.73.9.35.6.52,1.2.52,1.8,0,.2-.1.45-.3.75l-14.55,14.85h-.45c-1,0-1.5-.6-1.5-1.8ZM70.65,84.48v-.6c0-.5.17-.85.52-1.05.35-.2.77-.3,1.28-.3.2,0,.5.05.9.15l14.55,14.55.15.45c0,.1-.05.3-.15.6l-2.55,2.55c-2.7-2.6-5.3-5.27-7.8-8.02-2.5-2.75-4.8-5.52-6.9-8.32Z"/></g></svg>