<svg id="rainbow" data-name="rainbow" xmlns="http://www.w3.org/2000/svg" xmlns:xlink="http://www.w3.org/1999/xlink" viewBox="0 0 95 98">
    <defs><style>.cls-1{fill:rgba(255,255,255,.3);}.cls-2{mask:url(#mask);fill:rgba(255,255,255,.3);}</style><mask id="mask" x="0.69" y="0.96" width="93.94" height="97.04" maskUnits="userSpaceOnUse"><g id="mask-2"><path id="path-1" class="cls-1" d="M.69,97.94H94.63V1H.69v97Z"/></g></mask></defs><title>rainbow</title><g class="cls-2"><path fill="#fff" id="rainbow" d="M49.45,22.38a6.15,6.15,0,0,0-4.15-1.66,1.2,1.2,0,0,0-1.24.83,5.57,5.57,0,0,0-.3,1.9A10,10,0,0,0,44.35,27a12.9,12.9,0,0,0,1.9,3.2v-.12a3.3,3.3,0,0,1,1.43.12v-1.3a3.5,3.5,0,0,1,.41-1.72,3.61,3.61,0,0,1,1.48-1.37A6.89,6.89,0,0,1,53,25.34q-1.65-1.29-3.56-3Zm-2.64,1.71c-.24.35-.47.69-.71,1a1.13,1.13,0,0,1-1,.54,1.66,1.66,0,0,1-.9-.36,1.45,1.45,0,0,1-.47-.83,1.16,1.16,0,0,1,.24-1,2.24,2.24,0,0,1,1.54-.83,6.49,6.49,0,0,0,1.78-.48.64.64,0,1,1,.47,1.19,2.05,2.05,0,0,0-.95.77Zm-5.37,3.77a12.06,12.06,0,0,1-.77-4.51,5.72,5.72,0,0,1,1.13-3.67,3.78,3.78,0,0,1,3.14-1.43,7.31,7.31,0,0,1,3.56.83,14.16,14.16,0,0,1,2.85,2c.86.79,1.72,1.6,2.55,2.43a11.7,11.7,0,0,0,2.78,2.07,1,1,0,0,1,.71,1.25,1.1,1.1,0,0,1-1.18.89,25.48,25.48,0,0,1-3.32-.3,6.07,6.07,0,0,0-3.2.18c-.4.24-.48.83-.24,1.78A3,3,0,0,1,49,32a6.27,6.27,0,0,0,.72,1,38.07,38.07,0,0,0,7.7,7.65q4,2.91,8.3,5.63a1.52,1.52,0,0,1,.77,1.13,1.75,1.75,0,0,1-.29,1.18,2,2,0,0,1-1,.77,1.39,1.39,0,0,1-1.31-.23l-5.21-3.5q-2.73-1.84-5.34-4A6.2,6.2,0,0,1,53.48,43c0,1.58-.08,3.5-.24,5.75s-.27,4.25-.35,6a47.61,47.61,0,0,1-.48,4.86c-.24,1.58-.43,3.12-.59,4.62a.84.84,0,0,1-.06.36.79.79,0,0,0-.06.35c.32.32.63.61.95.89s.67.58,1.07.89a25.87,25.87,0,0,1,5,5.93,45.26,45.26,0,0,1,3.44,6.94A76.66,76.66,0,0,1,64.62,87c.72,2.52,1.47,5,2.26,7.46a30.57,30.57,0,0,1,3.68-1.12A9.69,9.69,0,0,0,74,91.75c.63-.47,1.16-.57,1.59-.29s.34.61-.29,1a24.54,24.54,0,0,0-2,1.49q-.94.77-1.89,1.47l-2.26,1.25a26.55,26.55,0,0,1-2.61,1.24c-.23.16-.61.08-1.12-.24s-.82-.63-.89-.91c-.79-2.41-1.54-4.87-2.25-7.4s-1.55-5.05-2.49-7.53a47.32,47.32,0,0,0-3.38-7.06,24.45,24.45,0,0,0-4.93-5.93l-.71-.6a11.17,11.17,0,0,1-2.37,3.39c-1,.91-2.05,1.91-3.32,3A27.86,27.86,0,0,0,42.81,77q-1.19,1.36-2.25,2.85c-.72,1-1.39,2-2,3s-1.19,1.93-1.66,2.72a39.32,39.32,0,0,1-3,4.68c-1,1.39-2.13,2.87-3.32,4.45a31.57,31.57,0,0,1,3.27,1.13,8.43,8.43,0,0,0,3.26.65c.87,0,1.3.24,1.3.72s-.43.72-1.3.72c-1.35,0-2.67,0-4-.12a18.34,18.34,0,0,1-4-.71c-1.1-.39-1.64-.82-1.6-1.3a3.13,3.13,0,0,1,.89-1.66c.16-.16.34-.31.53-.48a6.5,6.5,0,0,0,.54-.47,19.46,19.46,0,0,0,2.67-4q1.13-2.25,2.43-4.63c.39-.78.79-1.55,1.18-2.3S36.6,80.69,37,79.9c.55-.94,1-1.74,1.42-2.37s.77-1.18,1.13-1.66a10.52,10.52,0,0,1,1.3-1.43q.78-.7,2.19-1.89c.56-.47,1.09-.89,1.6-1.24s1-.73,1.49-1.13a12,12,0,0,0,2.73-3.32c-1.35-1.19-2.63-2.35-3.86-3.49A18.94,18.94,0,0,1,39.78,55,19.29,19.29,0,0,1,39,49.31,44.47,44.47,0,0,1,39.43,43c.28-1.94.61-3.89,1-5.87a25,25,0,0,0-3.44,3q-2.37,2.37-4.57,4.74c-.1.11-.2.22-.31.32-.95,1-1.94,1.91-2.93,2.85-1.25,1.18-2.14,2.35-3.39,3.51-.54.5-1.07,1-1.62,1.48l-.64.58-.26.24c-.17.13-.33.06-.5.14s-.61.1-.76.06a1.65,1.65,0,0,1-.8-.58,1.22,1.22,0,0,1-.38-.94c.05-.54.61-.87,1-1.21s.8-.73,1.19-1.11c1.24-1.16,2.09-2.33,3.32-3.51s2.54-2.49,3.79-3.76C31,42,32,41,32.79,40a30.88,30.88,0,0,1,7.41-6.57c.31-.16.71-.4,1.19-.71a1.15,1.15,0,0,1,1.07-.6l1.06-.71a15,15,0,0,1-2.08-3.55ZM10.18,44a7.68,7.68,0,0,1,.47-2c.15-.63.33-1.25.53-1.84s.37-1.21.54-1.84A43.29,43.29,0,0,1,15.15,31,51.42,51.42,0,0,1,20,24,54.65,54.65,0,0,1,25.94,18a36.91,36.91,0,0,1,6.77-4.68,24.94,24.94,0,0,1,7.64-2.43,65.54,65.54,0,0,1,8-.43,22.07,22.07,0,0,1,9.85,2.2,30.5,30.5,0,0,1,8.18,5.88,46.86,46.86,0,0,1,6.52,8.18,81.39,81.39,0,0,1,4.86,8.78,29,29,0,0,1,1.49,4.44,13.72,13.72,0,0,0,1.83,4.21c.4.64.48,1.15.24,1.54s-.55.28-.95-.36a47.78,47.78,0,0,1-4.5-8.95,39.64,39.64,0,0,0-4.74-8.83c-1.43-2-2.92-3.89-4.45-5.75a33.78,33.78,0,0,0-5.1-5,25.93,25.93,0,0,0-6-3.56,18.41,18.41,0,0,0-7.18-1.36q-2.25,0-4.08.12a32.84,32.84,0,0,0-3.62.41,22.17,22.17,0,0,0-3.5.89A22.81,22.81,0,0,0,33.53,15a33.32,33.32,0,0,0-6.46,4.39,45.59,45.59,0,0,0-5.63,5.81,52.86,52.86,0,0,0-4.68,6.76A43.23,43.23,0,0,0,13.38,39a5.38,5.38,0,0,1-.78,1.72,5.46,5.46,0,0,0-.77,1.72c-.23.64-.47,1.25-.71,1.84a7.25,7.25,0,0,0-.47,1.83.31.31,0,0,1-.36.36c-.23,0-.35-.11-.35-.36.07-.78.15-1.51.24-2.18ZM.75,36.16a7.49,7.49,0,0,1,.53-2.49c.24-.87.43-1.68.59-2.43a19,19,0,0,1,.71-2.44,27.82,27.82,0,0,1,4.09-8.12,29,29,0,0,1,6.59-6.58c2.36-1.66,4.88-3.28,7.53-4.86a61.68,61.68,0,0,1,8.29-4.15,64.83,64.83,0,0,1,9-3A37.53,37.53,0,0,1,47.29,1a32.1,32.1,0,0,1,9.9,1.47,41,41,0,0,1,8.6,3.9A50.32,50.32,0,0,1,73.43,12a82.75,82.75,0,0,1,6.94,7.06q3.67,4.16,7.06,8.48T94.13,36a1.7,1.7,0,0,1,.41,1.67c-.2.47-.54.39-1-.24Q90.21,33.3,86.3,29T78.71,20.5a82.91,82.91,0,0,0-6.58-6.76A45.28,45.28,0,0,0,64.9,8.35a35.94,35.94,0,0,0-8.24-3.62,33.1,33.1,0,0,0-9.37-1.3,37.61,37.61,0,0,0-8.9,1.06,59.89,59.89,0,0,0-8.53,2.79,64.9,64.9,0,0,0-8,4A77.39,77.39,0,0,0,14.68,16a29.65,29.65,0,0,0-6,6.11,27.07,27.07,0,0,0-3.85,7.42,11.82,11.82,0,0,1-1.13,2.31,8.37,8.37,0,0,0-1,2.31c-.24.71-.51,1.46-.83,2.25A7.13,7.13,0,0,0,1.4,39a.32.32,0,0,1-.36.36c-.24,0-.35-.12-.35-.36,0-1,0-2,.06-2.84Z"/></g></svg>