<svg xmlns="http://www.w3.org/2000/svg" viewBox="0 0 163.39 188.13"><path id="logo-svg" fill="rgba(0, 0, 0, 0.75)" d="M117.29,95.14c-.08-.49-.45-1.87-1.13-4.15.13.46-.39-.76-1.59-3.65a7.85,7.85,0,0,1-.55-4.27q1.31.42,1.86,2.55c.09.41.21,1.08.35,2s.32,1.68.41,2.14A16.12,16.12,0,0,1,117.29,95.14Zm0,0,0,.19S117.31,95.31,117.29,95.14Zm-9.4-29.77a.55.55,0,0,0-.62-.62C107.18,65.21,107.39,65.42,107.89,65.37Zm-11.7,32q-1.86.35-2.34-.48c-2-.37-3.33-.28-4.07.28a1.79,1.79,0,0,1-1-1.11,1.48,1.48,0,0,1-1.17-.2,1.35,1.35,0,0,0-1.24-.21,2.33,2.33,0,0,0,1.31,1.79,6.53,6.53,0,0,1,1.79,1.31,2.38,2.38,0,0,1,1.17-.21,2.31,2.31,0,0,0,1.24-.27c.55.41.76.62.62.62a7.78,7.78,0,0,1,2.75-.62,10,10,0,0,0,2.89-.62C98,97.21,97.33,97.12,96.19,97.39Zm15.7-24.34c0,.08.06.17.07.24S112.07,73.19,111.89,73.05ZM80.76,80.87a.92.92,0,0,0,.42.89.73.73,0,0,0,.89.07A3,3,0,0,0,80.76,80.87ZM99.7,98.15a2.54,2.54,0,0,0,.48-1.24.83.83,0,0,0-1,.07,1.59,1.59,0,0,0-.55.83A1.71,1.71,0,0,0,99.7,98.15Zm-9.57,41.31c0,.1,1.76,1.54,5.16,4.34.32.28.76.69,1.31,1.24s1,.94,1.24,1.17a5,5,0,0,0,3.1,1.31c.14-.55-.51-1.33-1.93-2.34q-7.58-5.31-8.4-5.72Zm1.31,16a.66.66,0,0,0-.14.62,1.3,1.3,0,0,1,.14.76l1.1.75c.59.37,1,.65,1.38.83,1.19.64,2.08.69,2.68.14-1.61-1-3.17-2-4.68-3.1Zm4.68-55c0-.08-.06-.07-.12,0ZM129.93,170h-.48a.48.48,0,0,1-.07.41.61.61,0,0,0-.14.34C129.74,170.89,130,170.63,129.93,170Zm0-16c-.22.08.65.25,2.57.52A13.76,13.76,0,0,0,129.93,154.06ZM83.93,82a1.75,1.75,0,0,0-.34.07,2.39,2.39,0,0,1-.42.07c0,.45.12.66.35.62a1.6,1.6,0,0,1,.41-.14.69.69,0,0,1,.35-.14C84.32,82.13,84.21,82,83.93,82Zm6.75,18.59c.55.27.85.55.89.83a4.28,4.28,0,0,1,2.62.27c.09,0,.16-.18.21-.41s.18-.44.27-.48a.34.34,0,0,1,.42.2c.09.23.2.32.34.28a3.08,3.08,0,0,1,.57-.87,40.9,40.9,0,0,0-6-.85A1,1,0,0,0,90.68,100.56Zm9.78-17.42a1.87,1.87,0,0,0,1.79-.21.49.49,0,0,1-.35-.48c.09-.09-.59-.09-2.06,0-.19-.6-.46-.92-.83-1-.18.73-.3,1.05-.34,1a4.16,4.16,0,0,1,.89.34C100,83,100.32,83.09,100.46,83.14ZM163.39,117a2.72,2.72,0,0,1-.69,1,4.08,4.08,0,0,0-.62,1h-.82a3.16,3.16,0,0,0-1.1,1.11,24.5,24.5,0,0,0-7.72,5.09,47.23,47.23,0,0,1-7.16,5.58,1.3,1.3,0,0,0,1.72-.07,7.47,7.47,0,0,0,.76-.69l.76-.62c.27-.23,1.12-.8,2.55-1.72a15.26,15.26,0,0,0,2.27-1.72,4.8,4.8,0,0,1,.48-1.52l1,.76a.75.75,0,0,0,.55-.34.83.83,0,0,1,.62-.28s.57.51,1.58,1.38a31,31,0,0,1-5.23,3.86,34.94,34.94,0,0,0-5.31,3.78,1.59,1.59,0,0,0,.49.9c-1,1.24-1.5,1.93-1.59,2.06a3,3,0,0,1-1.1-.69,9.71,9.71,0,0,0-1-.68,3.72,3.72,0,0,0-2.69,1.37,3.67,3.67,0,0,1-1.31-.13q.15-.21-1.65.27.34-.06-7,4.48c-3.58,2.29-5.83,3.81-6.75,4.54.46.28.78.48,1,.62q2-1.51,8.4-5.3,2.55-1.46,3.72.62a9.39,9.39,0,0,1-3.1,2.68,11.2,11.2,0,0,0-3.23,2.48,4.19,4.19,0,0,0,1.24.48,1.65,1.65,0,0,1,1,.56q-1.44,1.51-6,7.16a6.33,6.33,0,0,1,1.79,1.58,11.27,11.27,0,0,1,1.17-.48q9.09,3.51,13.22,1.24-7.77-1.94-11.13-2.72,2.07.28,5.83.72a6.5,6.5,0,0,0,1.58-.07q1.38-.21,1.65-.27a7.15,7.15,0,0,0,2.76-.42.48.48,0,0,0-.28-.48c-.27-.09-.41-.2-.41-.34l-3-.35c-1.29-.13-2.3-.27-3-.41q-4-.69-4.68-1.86a25.05,25.05,0,0,1,4.27.69,18.43,18.43,0,0,0,4.33.55,10.43,10.43,0,0,0,1.11-1.38,25.82,25.82,0,0,0,3.1.14h2.89a1,1,0,0,0,.82.9.44.44,0,0,1-.27.41.59.59,0,0,0-.21.41,56.4,56.4,0,0,1,.14,5.86c-.09,3.48-.14,5.3-.14,5.43q-6.75,2.63-16,.21l-.35,1.24a8.54,8.54,0,0,1,2.41,1.79,5.77,5.77,0,0,0,2.62,1.58c0,1.44,1.6,3.08,2.33,4.25a1.78,1.78,0,0,1,.3.64,1.22,1.22,0,0,1,0,.27h.08l-3.74,7.75,3.47,6.1h-1.62l-2.87-5.18-.88-1.51v6.69h-1.35V174.09h.08c-.32-.3-.59-1.39-.82-3.3a12.76,12.76,0,0,1-.86,2c-.2.42-.64.86-.86,1.34H131v13.85h-1.35V174.09h0a2.21,2.21,0,0,1,.07-.3,16.6,16.6,0,0,0,.8-2.27c.16-.93.18-1.92.33-2.86-.09-.14-.18-.12-.27.07s-.32.34-.55.2a.8.8,0,0,1,.2-.68,1.42,1.42,0,0,0,.28-.69c-.14-.14-.32-.05-.55.27s-.42.39-.55.21a.54.54,0,0,1,.06-.76,1.09,1.09,0,0,0,.21-1c-.23.09-.44.53-.62,1.31a1,1,0,0,1-1.17.89c-.55-1-.76-1.44-.62-1.44a8.88,8.88,0,0,0,.14-2.48c-.09-.1-.46-.14-1.1-.14a17.25,17.25,0,0,0-4.55-9.3,15.71,15.71,0,0,0-2.34-1.92,16.28,16.28,0,0,1-2.48-2,2.15,2.15,0,0,1-.48-.55q-.34-.48-.48-.69c-.14-.14-.35-.32-.62-.55a2.76,2.76,0,0,1-.55-.55v-.28c0-.18,0-.3,0-.34a8.59,8.59,0,0,0-1.72-1.38,15,15,0,0,1-1.79-1.24,23.73,23.73,0,0,1-.07-2.48,5.49,5.49,0,0,0-.28-2.34,16.3,16.3,0,0,0-1.79-2.75,22.83,22.83,0,0,1-1.79-2.83,43.51,43.51,0,0,0-3-5.3q-2.34-3.57-3.1-5.09a1.4,1.4,0,0,0-1-.49,9.45,9.45,0,0,0-6.13-4.82q-.56-2.4,1.24-11.36a41.81,41.81,0,0,1,6.34-6.54,1.08,1.08,0,0,0-.14-.41.78.78,0,0,1,0-.48q2.82-2.28,2.55-4.48c.91-.78.91-1.77,0-3a1.2,1.2,0,0,1,.62,0,.78.78,0,0,0,.68-.21,10.14,10.14,0,0,1,.62-1.65,8.66,8.66,0,0,0,.49-1.72q.14-.34.34-7.3a21.25,21.25,0,0,0,0-2.48,1.51,1.51,0,0,0-1.65.41c-.65.51-1.17.67-1.59.49a2.8,2.8,0,0,0-1.58-1.38s-.23.37-.83,1.24a1.51,1.51,0,0,1-1.44.62c0,.18-.19-.23-.69-1.24-.09-.14-.23-.14-.41,0a.67.67,0,0,1-.69.14c.27-.83,1.07-1.33,2.41-1.52a7.15,7.15,0,0,1,3.44.41q-.27-1.31-2.34-1.44a6.78,6.78,0,0,0-3.38.69c-.87,1-1.4,1.42-1.58,1.37.09-.59.57-1.1,1.45-1.51,0-.09-.23-.16-.55-.21a.31.31,0,0,1-.28-.41c-.14,0,.78-.57,2.76-1.58a6.1,6.1,0,0,1,2.89,1.58,3.42,3.42,0,0,1,2.27.21,1.69,1.69,0,0,1,1,1.65c.78-.46,1-1.61.62-3.44-.37-2-.34-3.26.07-3.72q-.83-4.2-2.41-5.3c0-.28.16-.37.48-.28l.62.28c-.73-1.06-.78-1.77-.13-2.14a2.35,2.35,0,0,0-.49-.76,1.2,1.2,0,0,1-.34-1,15.63,15.63,0,0,1,3,3.51,8.81,8.81,0,0,0,3.3,3.17.86.86,0,0,1-.34.76,8.49,8.49,0,0,1,1.38,2.44,8.06,8.06,0,0,0-1-.58,4.81,4.81,0,0,0,1.24,2.06,26.23,26.23,0,0,0,.55,6.47,30.43,30.43,0,0,1,.76,6.27,1.5,1.5,0,0,1,.48.9,3.63,3.63,0,0,0,.35,1.1,4.21,4.21,0,0,0,.82.89,2.45,2.45,0,0,1,.76,1,8.62,8.62,0,0,1,.35,2.34,10.8,10.8,0,0,0,.34,2.61c0,.1.21.17.62.21q.61,3.58-.48,5.1.35,2.2-1.1,9.64a.61.61,0,0,1-1,0,5.77,5.77,0,0,1,.14,1.37,6.11,6.11,0,0,0,0,1.38c-.41.28-1.54,2.62-3.37,7a4.16,4.16,0,0,1,1.72,1.59q-1.19,7.76,1,12.06a26.15,26.15,0,0,1,3.5-6.82c.79-1.13,2.15-2.88,4.1-5.25q2.72-3.3,4-5.18a2.45,2.45,0,0,1,.76.38,1.28,1.28,0,0,0,.91.28c-.56,1.23-1.44,3.45-2.65,6.64l-.49,1.3A153.56,153.56,0,0,1,140,110a.26.26,0,0,0,.14-.34.24.24,0,0,1,.14-.32l2.74-2.43,2.82-2.47,1.77-1.6a2.66,2.66,0,0,0,.35-1.18,9,9,0,0,1,.24-1.36A12.43,12.43,0,0,1,160.33,93l-1.83,1.23a7.94,7.94,0,0,1,.93-.81,8.77,8.77,0,0,0-5.74,1.32,9.49,9.49,0,0,0-4.56,5.08q2.19-4.08,7.69-5.46a10.45,10.45,0,0,0-4,4q.91-.77,3.73-3a17.33,17.33,0,0,0-1.6,2.89,24.41,24.41,0,0,1-1.53,2.85,8.92,8.92,0,0,0,1.28-1.64A16.69,16.69,0,0,1,155.71,98a13.4,13.4,0,0,0-.42,1.77c.21-.39.46-.93.76-1.6s.61-1.33.77-1.63a9,9,0,0,1,1.43-2c-.16.33-.6,1.28-1.33,2.85a20.84,20.84,0,0,1-2.47,4.38,9.92,9.92,0,0,1-3.3,2.33,6.85,6.85,0,0,1-.9.17,1.76,1.76,0,0,0-.91.28c-.07,0-.6.67-1.6,1.88l-2.33,2.81-2.33,2.86c-.07.16-.15.22-.24.17l-.28-.1a110.6,110.6,0,0,1-9.69,10.94,1.8,1.8,0,0,1,.78-.09c.36,0,.66.25.89.75a1.25,1.25,0,0,1-.14,1.38c.37,0,.62-.14.76-.55s.37-.78.55-.83.51.42.83,1.24c-.37,0,.27.42,1.93,1.11a.85.85,0,0,0,.62-.49c.18-.36.34-.57.48-.62a7.93,7.93,0,0,1,2.48.62q11-6.2,14.39-10.26a1.06,1.06,0,0,1,.82.21c.28.28.49.41.62.41a2.53,2.53,0,0,0,1.59-.82l.82-.76h.62C161.28,114.45,162.11,115.29,163.39,117Zm-29.26,54.33a6.16,6.16,0,0,1,.27,2.81h.3v4.73l1,1.65,2.84-6.06a1.5,1.5,0,0,1-.22-.39c-.18-.55-.18-1.09-.38-1.64s-.55-.92-1-1a1.16,1.16,0,0,0,.21,1.11,2,2,0,0,1,.41,1.23c-.78.05-1.29-.41-1.51-1.37s-.62-1.72-1-1.86C134.86,170.52,134.54,170.77,134.13,171.28Zm-2.27-13c.27.09.59.51,1,1.24a13.43,13.43,0,0,1,1.58.35c.83.18,1.52.32,2.07.41,1.74.23,2.94,0,3.58-.62-.78-.14-2.2-.37-4.27-.69C133.9,158.63,132.59,158.4,131.86,158.26Zm8.72-48.71c.76.72,1.49,1.47,2.19,2.26q1.24-1.43,6.36-7.69c-.44-.41-.83-.8-1.18-1.14l-3.69,3.3C142.73,107.65,141.51,108.74,140.58,109.55ZM122.92,129q10.37-11.72,16.48-16.67a2.09,2.09,0,0,1,.41-.28l.52-.35c.4-.3.55-.53.46-.69s-.77-.09-1.67.62c-.28.24-.59.51-.94.84s-.62.53-.52.49a119.48,119.48,0,0,0-14.06,14.39C123.36,127.94,123.14,128.49,122.92,129Zm11-1.66c-1.22-1.82-1.72-3.07-1.54-3.74q-2.2,2.25-4.81,4.8c-2,1.93-3.84,3.68-5.64,5.3l1.53-.92c1.92-1.19,3.25-1.72,4-1.58a9,9,0,0,1-2.34,1.72,5.68,5.68,0,0,0-2.14,1.86A35.93,35.93,0,0,0,133.92,127.34Zm-38.15-34a5,5,0,0,0-5.16-1.58c.23-.69,0-1.11-.62-1.24A7.08,7.08,0,0,0,89.78,94a6.74,6.74,0,0,1,2.14.89,6.19,6.19,0,0,0,1.93,1A9.7,9.7,0,0,0,97.22,93a2,2,0,0,0-.69.2A2.06,2.06,0,0,1,95.77,93.33ZM84.62,82.11c-.14.36-.05.52.28.48s.5-.21.41-.48Zm12.74-9.58a3.52,3.52,0,0,0,.34-3.3c-.55-1.84-2-2.57-4.34-2.2s-3.23,1.67-3.09,3.78a2.94,2.94,0,0,0,1.58,2.41,4.35,4.35,0,0,0,3,.62A3.69,3.69,0,0,0,97.36,72.53ZM91.23,89.75c-.09-.55-.3-.8-.62-.76-.09.74-.14,1.08-.14,1a.46.46,0,0,0,.42-.06A.93.93,0,0,1,91.23,89.75ZM52.76,52,8.63,39.76,8.5,40l40,21.23C49.94,58.07,51.33,55.08,52.76,52ZM67,39.72,40.08,11.21l-.17.13c7.36,11.07,14.71,22.14,21.88,32.94Zm40.45.81c4.48-7,9-13.9,13.5-20.84,1.08-1.66,2.14-3.32,3.21-5l-.17-.13L98.85,40c2.41.45,4.65.82,6.86,1.3A1.38,1.38,0,0,0,107.42,40.53ZM84.87,0l-.15,0c-1.46,12.44-2.91,24.89-4.39,37.51l6.67-2Q85.94,17.7,84.87,0Zm33.26,52.79a1.64,1.64,0,0,0,1.85-.22c2.5-1.85,5-3.64,7.56-5.45l9.39-6.74-.09-.18L113.33,50.83C115.05,51.52,116.61,52.11,118.13,52.79ZM48.41,68.72l5.62.63c.23-1,.45-1.89.7-3l-5.22-2C49.13,65.91,48.79,67.27,48.41,68.72Zm7.34-4.92c.36-.69.63-1.42,1-2.21l-4.86-2.72c-.61,1.37-1.16,2.63-1.75,4,1.7.46,3.31.91,4.93,1.31A.83.83,0,0,0,55.75,63.8Zm3-6.88-3.91-3.16-2.17,3.39,4.67,2.13Zm3.13-4-3.16-3.58-2.57,2.82,4,2.75Zm3.93-3.37c-.82-1.36-1.57-2.63-2.38-4L60.7,47.67l3.13,3.52Zm2.56-1.79,2.11-1.15-1.58-4.1-3.12,1.62Zm7.28-3.4c-.28-1.36-.53-2.61-.81-4l-3.11,1,1.82,3.72ZM80.25,43c.23-.09.53-.38.54-.59.06-1,0-2,0-3l-2.88.44c.36,1.21.67,2.29,1,3.4A5.84,5.84,0,0,0,80.25,43Zm4.46-.26h1.91c.17-1.07.33-2.11.51-3.26H84.4C84.5,40.53,84.6,41.58,84.71,42.69Zm7.83,1.1,1.12-2.87a3.7,3.7,0,0,0-.48-.21l-2-.47c-.08.52-.16,1-.22,1.5C90.74,43.44,90.74,43.44,92.54,43.79Zm7-.24-2.15-1.1-1,2.76,1.46.78Zm3,5.25,2-1.87-1.69-1.42-1.5,2.29Zm4.91.77-1.79,1.81.79,1.08,2.2-1.24C108.2,50.61,107.84,50.11,107.44,49.57Zm9.89,124.52h1.35v13.85h-1.33V177.22l-4.3,10.72H111.7V174.1H110v1.48h-4.41v4.91h3.78V182h-3.78v4.45h4.33v1.51h-5.67V174.1h-2.31v13.84h-1.74L97.4,176.63l-2.79,11.31H92.88V174.1H88.29a2.56,2.56,0,0,1,.43.17,3,3,0,0,1,1.12,1.11,5.66,5.66,0,0,1,.71,1.84,11.48,11.48,0,0,1,.25,2.57v2.41a11.54,11.54,0,0,1-.25,2.57,5.64,5.64,0,0,1-.72,1.86,3.18,3.18,0,0,1-1.13,1.12,3,3,0,0,1-1.49.38,2.93,2.93,0,0,1-1.47-.38,3.18,3.18,0,0,1-1.13-1.12,5.87,5.87,0,0,1-.73-1.86,10.94,10.94,0,0,1-.26-2.57v-2.41a10.88,10.88,0,0,1,.26-2.57,5.66,5.66,0,0,1,.74-1.84,3.07,3.07,0,0,1,1.13-1.11,2.17,2.17,0,0,1,.42-.17H82.45v.1l-2.07,5.89a3.21,3.21,0,0,1,1.24,1.44,5.36,5.36,0,0,1,.43,2.24,5.15,5.15,0,0,1-.8,3.11,2.84,2.84,0,0,1-2.38,1.06h-3V174.1H71l-3.44,13.84H66.37L62.93,174.1H61.31v13.84H60V177.22l-4.29,10.72H54.33V174.1H52.61v1.48h-4.4v4.91H52V182H48.21v4.45h4.33v1.51H46.86V174.1h-1.4v.1l-2.07,5.89a3.21,3.21,0,0,1,1.24,1.44,5.36,5.36,0,0,1,.43,2.24,5.15,5.15,0,0,1-.8,3.11,2.84,2.84,0,0,1-2.38,1.06h-3V174.1H36.52v13.84H35.18V174.1h0q0-2.21-.07-13.5,0-8.19.21-13.22a3,3,0,0,0,.48-.69,2.85,2.85,0,0,1,.48-.75c.55-2.44,1.31-5.28,2.27-8.54.14-.51.42-1.59.83-3.24a19.63,19.63,0,0,1,.9-2.89,5.37,5.37,0,0,1,3.78-3.65,5.1,5.1,0,0,1,3.72-3.72q-.14.69,2.76-5.09a17,17,0,0,0,.62-2.69,3.89,3.89,0,0,1,1.3-2.34q1.73-9.44,2.49-14.34h-.31a7.42,7.42,0,0,0-2.39.37q-17.34,6.33-34.66,12.71a2.51,2.51,0,0,1-1,.2L23.83,108Q38.43,98.65,53,89.27c.52-.33,1-.72.73-1.33-.16-.32-.77-.42-1.17-.62h-.11c-3.08-.48-3.83-1.5-3.32-4.66H46.53V78.82L0,76.58l0-.19c.65-.1,1.3-.23,2-.31l35.94-4.37c2.94-.36,5.89-.7,8.82-1.1a6.42,6.42,0,0,0,1.55-.68l0-.32L54,71.26c0-.13.13-.37.22-.65-1,5.26.52,10,2.08,14.89a58.75,58.75,0,0,1,1.3-12.83q.21-4.89,7.09-17.56a20.93,20.93,0,0,0,2.55-2.48,9.78,9.78,0,0,1,3-2.34,51,51,0,0,1,6-2.2,23.73,23.73,0,0,1,6-1.24q2.76-.06,9.85,2.69A21.24,21.24,0,0,1,101.28,56a11.83,11.83,0,0,1,2.41,4.82,1.38,1.38,0,0,1-.89-.69,2.17,2.17,0,0,0-.9-.69q-6.54-1-8.4-2.34a4.52,4.52,0,0,1-3.1,1l-3.65.21c-.91.18-1.35.3-1.3.34a1.85,1.85,0,0,1-1.66,1,.31.31,0,0,0,.28.41.34.34,0,0,1,.21.41c0,.1-.33.23-1,.42A5.92,5.92,0,0,1,82.83,63a5.46,5.46,0,0,0-.48,2,27.89,27.89,0,0,1-3.58,2.75A9.47,9.47,0,0,0,75.6,71a1.84,1.84,0,0,1,.34,1.86,8.79,8.79,0,0,0-.2,2,7.18,7.18,0,0,0,3.65.69,7.46,7.46,0,0,1,3.78.89,1.32,1.32,0,0,1,1.45-.76c1.56.05,2.2.1,1.93.14a7.29,7.29,0,0,0,1.31-.41,3,3,0,0,1,1.3-.21,3.24,3.24,0,0,1,2.41,1.79c.14.28.35.76.62,1.45a9.84,9.84,0,0,0,.69,1.37,10,10,0,0,0-.13,2.69c-1.61-.69-2.37-1-2.28-.83a3.09,3.09,0,0,1-.13-1.3.73.73,0,0,0-.69-.83c-.74.23-.9.39-.49.48q-.75-.14-.75-.69s.09-.43.27-1.17a4.72,4.72,0,0,0-3.72-1c-1.74.09-2.82.64-3.23,1.65a6.29,6.29,0,0,0,1.38-.62,3.92,3.92,0,0,1,1.51-.34A13.48,13.48,0,0,1,87.72,79a2.1,2.1,0,0,1-1.24.07c-.55-.1-.9,0-1,.27s0,.35.13.62.1.44-.27.62a1,1,0,0,1-1-.07L83.52,80v.55c0,.19-.12.25-.35.21a1.15,1.15,0,0,1-.75-.28,4,4,0,0,0-.55-.48,5,5,0,0,1-3.38-.27,6,6,0,0,0-4.06-.21,17.12,17.12,0,0,1,.69,2.62c.27,1.33.48,2.22.62,2.68a1.64,1.64,0,0,0,.55.21c.27.09.41.23.41.41a14.58,14.58,0,0,0,3.1,5,.44.44,0,0,1-.21.48c-.13.05-.13.14,0,.28a14.13,14.13,0,0,1,2,4.2c-.18.09-.39,0-.62-.21s-.21,0-.21.21q3,5.85,2.07,5.44a.56.56,0,0,0,.69.06.47.47,0,0,1,.62-.06,5,5,0,0,0,2.13,3.09c.14,0,.14-.13,0-.41s0-.39.28-.34a.69.69,0,0,1,.27.27,1,1,0,0,0,.14.35c.14.13.39.13.76,0A3.37,3.37,0,0,0,88.2,105a7.7,7.7,0,0,0,4.2,1.72h.83a6.27,6.27,0,0,1,.69-.07,1,1,0,0,1,1,.69,2.46,2.46,0,0,1-.41,2.13c-.83,1.43-1.22,2-1.18,1.86a4.87,4.87,0,0,0-.13.76,1.88,1.88,0,0,1-.21.69,5.69,5.69,0,0,1-1.51,1.37c-.88.69-1.38,1.11-1.52,1.24-.51.1-.83,0-1-.27,0,.69-.16,1-.35,1a3.93,3.93,0,0,0-1.65.07,5.83,5.83,0,0,1-1.58.41.66.66,0,0,1-.62-.34c-.14-.32-.26-.51-.35-.55a.81.81,0,0,1-1,.48,1.22,1.22,0,0,0-1.17.41,7,7,0,0,0-2.62-.34,18,18,0,0,1-2.89-.14s-1,.28-3.17,1a28.09,28.09,0,0,0-2,3.71c-.82.1-1.19.1-1.1,0-.32,1.47-.37,2.34-.13,2.62,0,.14-.26.23-.62.28s-.56.16-.56.34v2.48q-1.85,2.55,1,8.88a22.47,22.47,0,0,0,2.41,4.48,5.11,5.11,0,0,0,1.31,1,8,8,0,0,1,1.31.89,2.27,2.27,0,0,1,.48.62,3.35,3.35,0,0,0,.48.62,18.28,18.28,0,0,0,4.34,2q1.38.48,3.78,1.17c1.75.55,3,.94,3.65,1.17A13.9,13.9,0,0,1,94,151c1,0,1.45.25,1.45.9A9.6,9.6,0,0,1,91,150.34q-1.23.42-1.17.42a2.24,2.24,0,0,0-1.51-1.45,3.74,3.74,0,0,0-2.34-.21c-.19,1.24.62,2.53,2.41,3.86s2.8,2.66,2.75,3.72a1.72,1.72,0,0,1-1.44.34,57.27,57.27,0,0,1-12.81,7.71,1.61,1.61,0,0,1-.14,1.11,1.83,1.83,0,0,0-.34,1q-10.74,4.13-9.16,4.34a4,4,0,0,1-.69,3h-2.2l.83,3.6h3.61l.85-3.61h1.32c0-.5.3-.77,1-.82a3.16,3.16,0,0,0,1.52-.27,17.38,17.38,0,0,1,2.82-1.93,17.38,17.38,0,0,0,2.82-1.93.55.55,0,0,1,.69.21c.23.41.32.59.28.55a2.75,2.75,0,0,0,1.23-.69,12.15,12.15,0,0,1,1-.89,1.24,1.24,0,0,1,.34-1.93,13.41,13.41,0,0,0,1.79-1.31c1.56.14,2.53,0,2.89-.35a2,2,0,0,0,0-.82,5.48,5.48,0,0,1,0-1.17c1-.83,1.61-1.24,1.93-1.24.51-1.33,1.1-2,1.79-2a8.59,8.59,0,0,0,1.66,1c1.83,1.15,2.73,1.73,2.68,1.73.69,0,1.08.06,1.17.2a55.66,55.66,0,0,0,7.58,3q6.12,2,7.78,2.69a6.89,6.89,0,0,1,2.68,2.55,9.55,9.55,0,0,0,2.34,2.75.89.89,0,0,1-.2.62h-3.73v10.66Zm-74.08,7.85a1.79,1.79,0,0,0-.58-.55,1.53,1.53,0,0,0-.81-.21H40.23v5.25h1.65a1.71,1.71,0,0,0,.84-.19,1.47,1.47,0,0,0,.57-.54,2.68,2.68,0,0,0,.32-.84,5.25,5.25,0,0,0,.1-1.09,4.05,4.05,0,0,0-.12-1A2.44,2.44,0,0,0,43.25,181.94ZM44,174.1H40.23v5.59h1.88ZM74.77,166a6.44,6.44,0,0,1-2.41,1.24A7.53,7.53,0,0,0,70,168.52a8.57,8.57,0,0,1,1.38-.48l1.58-.48C74.06,167.14,74.68,166.62,74.77,166Zm-6.61-24.51a.8.8,0,0,0,.14.34,17.49,17.49,0,0,0,7.92,4.48q-1.11-3.24-3.58-3.72a16.28,16.28,0,0,1-2.41-.14A2.47,2.47,0,0,1,68.16,141.46ZM60,174.1H55.68v10.66Zm3.67-29.4c0,1,.92,2.16,2.61,3.44q6.61,5.1,10.33,5.58c-2.15-.87-3.07-1.29-2.75-1.24a8.54,8.54,0,0,0-1.58-2,10,10,0,0,1-1.66-2,22.63,22.63,0,0,1-3.23-2.68,29.67,29.67,0,0,1-2.55-3,19.58,19.58,0,0,0-2.62-2.76,6.25,6.25,0,0,0-1-.62,9.79,9.79,0,0,1-1-.62A2.59,2.59,0,0,1,58.94,137c.18-.41.68-.57,1.51-.48l.9.21a3.89,3.89,0,0,0,.48.07,17.79,17.79,0,0,0-2.07-1.52A5.11,5.11,0,0,1,58,133.4q-6.33-3.36-7.3-7.78a6.22,6.22,0,0,1-.69.76,2.38,2.38,0,0,0-.62,1,8.65,8.65,0,0,0,.76,1.45,5.1,5.1,0,0,1,.69,1.52,3.71,3.71,0,0,1,2.62,3.51,6.4,6.4,0,0,0,1.44.48Q59.84,139.81,63.62,144.7Zm4.79,34.5H65.49L67,185.5Zm11.83,2.74a1.79,1.79,0,0,0-.58-.55,1.53,1.53,0,0,0-.81-.21H77.22v5.25h1.65a1.71,1.71,0,0,0,.84-.19,1.47,1.47,0,0,0,.57-.54,2.68,2.68,0,0,0,.32-.84,5.25,5.25,0,0,0,.1-1.09,4.05,4.05,0,0,0-.12-1A2.44,2.44,0,0,0,80.24,181.94ZM81,174.1H77.22v5.59H79.1Zm7.19,1.59a1.91,1.91,0,0,0-1-.24,1.85,1.85,0,0,0-.94.24,2.08,2.08,0,0,0-.71.78,4.27,4.27,0,0,0-.45,1.35,10.18,10.18,0,0,0-.17,2v2.43a11,11,0,0,0,.16,2,5,5,0,0,0,.45,1.36,2,2,0,0,0,.71.77,1.76,1.76,0,0,0,.94.25,1.79,1.79,0,0,0,1-.25,2,2,0,0,0,.71-.77,4.44,4.44,0,0,0,.43-1.36,11.09,11.09,0,0,0,.15-2v-2.43a12.37,12.37,0,0,0-.14-2,4.56,4.56,0,0,0-.43-1.35A2,2,0,0,0,88.19,175.69Zm8.69-1.59H94.22v5.38l-.12,5.37Zm3.83,10.78-.13-5.4V174.1H97.91Zm26.51-7.54a9.81,9.81,0,0,1,.28,2.49v2.34a9.84,9.84,0,0,1-.28,2.5,5.48,5.48,0,0,1-.79,1.81,3.38,3.38,0,0,1-1.24,1.09,3.52,3.52,0,0,1-1.63.37H121V174.09h2.42a3.9,3.9,0,0,1,1.71.36,3.43,3.43,0,0,1,1.28,1.09A5.15,5.15,0,0,1,127.22,177.34Zm-1,2.49a6.29,6.29,0,0,0-.65-3.18,2.27,2.27,0,0,0-2.09-1.07h-1.08v10.85h1.21a2.17,2.17,0,0,0,2-1,6.07,6.07,0,0,0,.65-3.21Zm1.49-66a11.25,11.25,0,0,0-1.32,2.68,2.5,2.5,0,0,1,.87.45,5.88,5.88,0,0,0,.8.52,3.59,3.59,0,0,1,.62-1.35,6.15,6.15,0,0,0,.7-1.29c-.12-.07-.38-.25-.8-.55A2.3,2.3,0,0,0,127.66,113.86Zm2.68-1.42q.14-.24.66-1.53a7.51,7.51,0,0,1,.66-1.36,1.89,1.89,0,0,1-1-.35,11.25,11.25,0,0,1-1.22,2.3,8.93,8.93,0,0,0-1.08,2.36C129.14,114.07,129.8,113.6,130.34,112.44Zm8.52-9.81q.69-1.87,1.63-5.63c.65-2.65,1.14-4.44,1.46-5.39a28.78,28.78,0,0,0-6.57,5.53q-4.38,4.52-4.73,6.74a7.07,7.07,0,0,0,1.36,5Q136.53,108.89,138.86,102.63Zm19.39-8.1.25-.27-.19.13Z"/></svg>