<?xml version="1.0" encoding="UTF-8"?><svg id="b" xmlns="http://www.w3.org/2000/svg" viewBox="0 0 143.83 151.11"><defs><style>.f{stroke-width:0px;}</style></defs><g id="c"><g id="d"><path id="e" class="f" d="M76.56,46.53c-1.13-1.06-2.62-1.66-4.17-1.67-.56-.05-1.08.3-1.25.83-.21.61-.31,1.26-.3,1.91-.02,1.22.18,2.42.59,3.57.48,1.16,1.12,2.24,1.91,3.22v-.12c.48-.07.97-.02,1.44.12v-1.31c-.01-.6.13-1.2.41-1.73.35-.59.87-1.07,1.49-1.38,1.09-.45,2.28-.61,3.45-.47-1.11-.86-2.3-1.87-3.58-3.02v.04ZM73.91,48.25c-.24.35-.47.69-.71,1.01-.21.35-.6.56-1.01.54-.33-.03-.65-.15-.9-.36-.25-.22-.41-.51-.47-.83-.08-.35,0-.73.24-1.01.38-.48.94-.78,1.55-.83.62-.07,1.22-.24,1.79-.48.33-.14.7.01.84.34s-.01.7-.34.84c-.01,0-.02,0-.03.01-.39.15-.72.42-.95.77ZM68.51,52.04c-.54-1.45-.81-2.99-.77-4.53-.06-1.32.34-2.63,1.14-3.69.76-.96,1.93-1.49,3.16-1.44,1.24-.03,2.48.26,3.58.83,1.03.55,2,1.22,2.86,2.01.86.79,1.73,1.61,2.56,2.44.82.83,1.76,1.53,2.79,2.08.54.14.86.69.72,1.22,0,.01,0,.02,0,.03-.11.56-.62.95-1.19.89-1.12-.03-2.23-.13-3.34-.3-1.07-.23-2.18-.17-3.22.18-.4.24-.48.83-.24,1.79.27.9.1,1.87-.45,2.63.21.36.45.69.72,1.01,2.2,2.92,4.81,5.51,7.74,7.69,2.68,1.95,5.46,3.84,8.34,5.66.42.23.71.66.77,1.14.05.42-.06.84-.29,1.19-.24.36-.6.63-1.01.77-.45.15-.95.06-1.32-.23l-5.24-3.52c-1.83-1.23-3.62-2.57-5.37-4.02.1.45.15.91.14,1.38,0,1.59-.08,3.52-.24,5.78s-.27,4.27-.35,6.03c-.08,1.64-.24,3.27-.48,4.88-.24,1.59-.43,3.14-.59,4.64,0,.12-.01.25-.06.36-.05.11-.07.23-.06.35.32.32.63.61.95.89s.67.58,1.08.89c1.97,1.72,3.66,3.73,5.03,5.96,1.35,2.22,2.51,4.56,3.46,6.97.95,2.44,1.78,4.92,2.47,7.45.72,2.53,1.48,5.03,2.27,7.5,1.21-.45,2.44-.83,3.7-1.13,1.25-.3,2.42-.84,3.46-1.6.63-.47,1.17-.57,1.6-.29s.34.61-.29,1.01c-.69.46-1.37.96-2.01,1.5-.63.52-1.26,1.01-1.9,1.48l-2.27,1.26c-.85.46-1.73.88-2.62,1.25-.23.16-.61.08-1.13-.24s-.82-.63-.89-.91c-.79-2.42-1.55-4.89-2.26-7.44s-1.56-5.08-2.5-7.57c-.93-2.45-2.07-4.83-3.4-7.1-1.33-2.24-3-4.25-4.95-5.96l-.71-.6c-.57,1.27-1.38,2.43-2.38,3.41-1.01.91-2.06,1.92-3.34,3.02-.81.75-1.57,1.54-2.28,2.38-.8.91-1.55,1.87-2.26,2.86-.72,1.01-1.4,2.01-2.01,3.02s-1.2,1.94-1.67,2.73c-.89,1.64-1.9,3.21-3.02,4.7-1.01,1.4-2.14,2.88-3.34,4.47,1.12.32,2.21.7,3.29,1.14,1.04.43,2.15.66,3.28.65.87,0,1.31.24,1.31.72s-.43.72-1.31.72c-1.36,0-2.68,0-4.02-.12-1.36-.09-2.71-.33-4.02-.71-1.11-.39-1.65-.82-1.61-1.31.12-.63.43-1.22.89-1.67.16-.16.34-.31.53-.48.19-.15.37-.31.54-.47,1.06-1.22,1.96-2.57,2.68-4.02.76-1.51,1.57-3.06,2.44-4.65.39-.78.79-1.56,1.19-2.31s.85-1.57,1.26-2.36c.55-.94,1.01-1.75,1.43-2.38s.77-1.19,1.14-1.67c.39-.52.83-1,1.31-1.44.52-.47,1.26-1.1,2.2-1.9.56-.47,1.1-.89,1.61-1.25s1.01-.73,1.5-1.14c1.11-.94,2.04-2.07,2.74-3.34-1.36-1.2-2.64-2.36-3.88-3.51-2.46-2.29-4.27-5.19-5.25-8.41-.55-1.86-.81-3.78-.78-5.72,0-2.12.14-4.24.43-6.34.28-1.95.61-3.91,1.01-5.9-1.24.9-2.4,1.91-3.46,3.02-1.59,1.59-3.12,3.18-4.59,4.76-.1.11-.2.22-.31.32-.95,1.01-1.95,1.92-2.94,2.86-1.26,1.19-2.15,2.36-3.41,3.53-.54.5-1.08,1.01-1.63,1.49l-.64.58-.26.24c-.17.13-.33.06-.5.14s-.61.1-.76.06c-.32-.11-.6-.31-.8-.58-.26-.24-.4-.59-.38-.94.05-.54.61-.87,1.01-1.22s.8-.73,1.2-1.12c1.25-1.17,2.1-2.34,3.34-3.53s2.55-2.5,3.81-3.78c.87-.94,1.88-1.95,2.67-2.95,2.11-2.59,4.63-4.82,7.45-6.6.31-.16.71-.4,1.2-.71.21-.39.63-.63,1.08-.6l1.07-.71c-.86-1.09-1.56-2.29-2.09-3.57ZM37.1,68.26c.07-.69.23-1.36.47-2.01.15-.63.33-1.26.53-1.85s.37-1.22.54-1.85c.92-2.55,2.07-5.02,3.45-7.36,1.43-2.48,3.06-4.83,4.87-7.04,1.83-2.16,3.83-4.18,5.97-6.03,2.09-1.82,4.37-3.39,6.8-4.7,2.41-1.22,5-2.05,7.68-2.44,2.67-.31,5.35-.45,8.04-.43,3.43-.04,6.81.72,9.9,2.21,3.05,1.5,5.83,3.5,8.22,5.91,2.48,2.49,4.68,5.24,6.55,8.22,1.81,2.84,3.44,5.79,4.88,8.82.62,1.44,1.12,2.94,1.5,4.46.37,1.5.99,2.93,1.84,4.23.4.64.48,1.16.24,1.55s-.55.28-.95-.36c-1.82-2.83-3.33-5.85-4.52-9-1.21-3.15-2.81-6.13-4.76-8.87-1.44-2.01-2.93-3.91-4.47-5.78-1.53-1.85-3.24-3.54-5.13-5.03-1.84-1.46-3.87-2.66-6.03-3.58-2.29-.93-4.74-1.4-7.22-1.37-1.51,0-2.87.04-4.1.12-1.22.07-2.43.21-3.64.41-1.19.2-2.37.5-3.52.89-1.28.46-2.51,1.03-3.69,1.71-2.33,1.21-4.51,2.69-6.49,4.41-2.06,1.77-3.95,3.73-5.66,5.84-1.74,2.14-3.31,4.41-4.7,6.79-1.34,2.25-2.48,4.62-3.4,7.08-.16.62-.42,1.2-.78,1.73-.36.53-.62,1.11-.77,1.73-.23.64-.47,1.26-.71,1.85-.24.59-.4,1.21-.47,1.84.03.17-.08.33-.25.36-.04,0-.07,0-.11,0-.23,0-.35-.11-.35-.36.07-.78.15-1.52.24-2.19v.07ZM27.62,60.38c.03-.86.21-1.7.53-2.5.24-.87.43-1.69.59-2.44.18-.83.42-1.65.71-2.45.91-2.93,2.3-5.68,4.11-8.16,1.84-2.55,4.07-4.78,6.62-6.61,2.37-1.67,4.9-3.3,7.57-4.88,2.67-1.6,5.45-2.99,8.33-4.17,2.94-1.22,5.96-2.23,9.05-3.02,3.03-.75,6.14-1.11,9.26-1.1,3.37-.03,6.73.47,9.95,1.48,3.02.97,5.92,2.28,8.64,3.92,2.73,1.64,5.3,3.53,7.68,5.66,2.46,2.22,4.79,4.59,6.97,7.1,2.46,2.79,4.82,5.63,7.1,8.52,2.27,2.89,4.52,5.73,6.73,8.5.43.44.59,1.09.41,1.68-.2.47-.54.39-1.01-.24-2.23-2.77-4.66-5.59-7.28-8.47-2.62-2.88-5.16-5.73-7.63-8.54-2.07-2.39-4.28-4.66-6.61-6.79-2.24-2.04-4.67-3.86-7.27-5.42-2.6-1.55-5.38-2.78-8.28-3.64-3.06-.88-6.23-1.32-9.42-1.31-3.01,0-6.02.35-8.94,1.07-2.92.72-5.79,1.66-8.57,2.8-2.77,1.15-5.46,2.5-8.04,4.02-2.49,1.45-4.9,3.03-7.22,4.74-2.3,1.74-4.33,3.81-6.03,6.14-1.67,2.27-2.97,4.79-3.87,7.46-.29.81-.67,1.59-1.14,2.32-.45.72-.79,1.5-1.01,2.32-.24.71-.51,1.47-.83,2.26-.32.83-.48,1.72-.47,2.61.02.18-.1.34-.28.36-.03,0-.06,0-.09,0-.24,0-.35-.12-.35-.36,0-1.01,0-2.01.06-2.85Z"/></g><path class="f" d="M15.55,70.84c0,.76-.19,1.42-.55,2-.37.57-.87,1.01-1.53,1.33-.65.32-1.4.47-2.25.46-.92,0-1.73-.19-2.44-.56-.71-.37-1.27-.86-1.67-1.48-.41-.62-.61-1.33-.6-2.13,0-.42.09-.84.25-1.25.17-.41.39-.75.67-1.03l-7.31-.04c-.08-.23-.12-.51-.12-.83,0-.28.05-.55.13-.81l12.03.07c.66,0,1.14-.08,1.43-.25.29-.17.44-.45.44-.84,0-.17.07-.3.22-.39.15-.09.34-.13.58-.13.19,0,.37.05.52.16.16.1.23.27.23.5,0,1.15-.48,1.92-1.43,2.31.44.35.79.78,1.03,1.27.24.5.36,1.04.36,1.65ZM11.24,72.95c.86,0,1.53-.19,2.02-.58.49-.39.74-.93.74-1.61,0-.76-.25-1.37-.77-1.84-.52-.47-1.2-.7-2.04-.71h-2.03c-.33.23-.59.53-.79.9-.2.37-.3.76-.31,1.16,0,.52.13.98.41,1.38.28.4.65.71,1.13.95.48.23,1.02.35,1.63.35Z"/><path class="f" d="M15.49,66.18c-.03.15-.12.27-.28.34-.16.07-.35.09-.58.05-.51-.09-.73-.35-.65-.78.09-.52-.04-1.03-.41-1.51-.36-.49-.9-.92-1.6-1.29-.71-.37-1.52-.64-2.43-.8-.21-.04-.41-.06-.59-.07-.18,0-.34,0-.46.01-.13.09-.32.17-.58.26-.26.08-.53.15-.81.19-.28.04-.51.05-.67.02-.2-.18-.34-.44-.41-.78-.07-.34-.04-.69.08-1.06.46-.15,1.01-.25,1.67-.28.05-.36.06-.85.02-1.48-.02-.39-.02-.71,0-.95.01-.24.03-.44.06-.6.11-.64.44-1.1.99-1.39.55-.28,1.23-.35,2.05-.21l2.87.5c.65.12,1.14.11,1.45-.01.32-.12.51-.37.57-.75.03-.17.12-.28.28-.35.16-.06.36-.08.59-.03.19.03.35.11.49.24.14.13.19.3.15.53-.3,1.72-1.51,2.4-3.62,2.03l-2.76-.48c-.54-.09-.92-.1-1.15-.02-.23.08-.38.28-.43.58-.02.11-.03.23-.03.36,0,.14,0,.37.02.72.02.6.01,1.06-.02,1.36.19.02.38.05.57.08,1.28.22,2.37.61,3.27,1.14.9.54,1.56,1.19,1.97,1.95.42.77.55,1.59.39,2.48Z"/><path class="f" d="M15.64,55.84c.14-.38.09-.83-.15-1.34-.24-.51-.64-1.01-1.19-1.49-.16-.05-.32-.1-.48-.16-.86-.32-1.56-.77-2.1-1.36-.54-.59-.9-1.24-1.07-1.97-.17-.73-.11-1.46.16-2.21.15-.4.37-.76.66-1.09.29-.33.62-.57.98-.74l-.7-.26c0-.11.02-.24.05-.39.03-.14.07-.29.12-.44.1-.27.23-.51.4-.72l4.97,1.84c.6.22,1.1.3,1.5.24.4-.06.69-.32.85-.76.07-.19.2-.29.38-.3.18,0,.37.02.55.09.18.07.33.18.44.33.11.15.13.33.05.55-.41,1.11-1.18,1.67-2.32,1.67.34.5.55,1.05.64,1.64.08.59.01,1.19-.21,1.79-.24.65-.6,1.18-1.08,1.58-.47.4-1.03.66-1.65.79.83,1.1,1.03,2.23.6,3.37-.05.15-.17.24-.34.28-.17.04-.36.02-.58-.06-.49-.18-.65-.47-.5-.88ZM14.4,51.27c.8.3,1.5.35,2.1.15.59-.2,1.01-.62,1.25-1.26.26-.71.23-1.38-.09-1.99-.33-.62-.88-1.07-1.67-1.36l-1.9-.7c-.39.11-.74.31-1.06.59-.32.28-.54.61-.68.98-.18.49-.21.96-.09,1.43.12.47.37.89.73,1.27.37.38.84.68,1.42.89Z"/><path class="f" d="M20.29,46.14c-.09.13-.22.19-.39.19-.17,0-.36-.07-.54-.2-.43-.29-.52-.62-.27-.98.22-.32.25-.71.11-1.19-.15-.48-.54-1.07-1.16-1.77l-1.44-1.65c-1.26-1.48-1.49-2.81-.69-3.98.4-.59.93-.91,1.58-.97.65-.06,1.3.14,1.97.6l1.82,1.25c.73.5,1.32.77,1.79.83.47.05.84-.12,1.1-.5.34-.5.33-1.05-.05-1.66-.37-.61-1.02-1.23-1.95-1.86l-.89-.62c.03-.11.08-.23.14-.36.06-.13.13-.25.21-.37.17-.25.36-.45.57-.6l.89.61c1.04.72,1.87,1.14,2.49,1.26.62.12,1.07-.02,1.36-.44.23-.34.27-.72.12-1.15-.15-.43-.46-.88-.91-1.35-.46-.47-1.03-.95-1.73-1.43-.06-.04-.12-.08-.18-.12-.51.36-1,.56-1.45.58-.27-.24-.49-.52-.66-.84-.17-.31-.27-.63-.3-.94-.03-.31.03-.57.16-.77.14-.21.39-.32.73-.32.34,0,.74.08,1.19.26.14-.25.28-.52.41-.79.13-.27.22-.52.28-.73.24,0,.51.06.78.15.28.1.51.23.71.39-.08.22-.19.48-.32.78-.13.3-.29.61-.48.95.96.66,1.74,1.36,2.32,2.08.58.72.94,1.44,1.05,2.16.12.72-.04,1.39-.47,2.01-.28.41-.64.7-1.07.89-.43.18-.91.24-1.44.17.21.5.3,1.01.25,1.53-.05.52-.23,1.02-.55,1.49-.52.76-1.21,1.15-2.06,1.17-.85.03-1.79-.31-2.82-1.01l-1.73-1.19c-.38-.26-.71-.41-.99-.45-.29-.04-.51.06-.67.29-.14.21-.17.45-.09.73.09.28.3.62.64,1.01l1.77,2.03c.81.93,1.28,1.79,1.42,2.55.14.77-.05,1.52-.55,2.26Z"/><path class="f" d="M35.73,26.88c-.24.1-.5.13-.78.1-.28-.03-.53-.12-.75-.26.12-1.56.12-3.14,0-4.75-.13-1.6-.37-3.1-.72-4.51.14-.13.35-.27.61-.43.26-.15.5-.24.72-.27l.77,1.1c-.07-1.25.35-2.19,1.26-2.83.73-.51,1.49-.67,2.27-.46.78.21,1.49.76,2.12,1.66l1.22,1.73c.38.54.73.88,1.04,1.02s.62.09.94-.13c.14-.1.29-.11.44-.05.16.07.31.2.44.39.11.16.17.33.18.52,0,.19-.08.35-.27.48-1.43,1.01-2.76.63-4-1.12l-1.33-1.89c-.75-1.06-1.52-1.32-2.29-.77-.35.24-.57.6-.67,1.07-.1.47-.07.98.07,1.53.15.55.41,1.1.79,1.64l5.94,8.43c-.08.1-.17.2-.27.3-.1.1-.21.19-.32.27-.24.17-.49.29-.75.38l-6.8-9.64c.09.59.16,1.2.21,1.83.05.64.08,1.25.08,1.86,0,.6,0,1.15-.03,1.64-.02.49-.06.88-.11,1.16Z"/><path class="f" d="M44.17,19.1c.38-.16.67-.51.87-1.03.2-.53.29-1.16.26-1.89-.08-.15-.15-.3-.22-.46-.36-.84-.52-1.66-.47-2.46.05-.8.28-1.51.69-2.13.41-.62.98-1.09,1.71-1.41.39-.17.8-.26,1.24-.27.44-.01.84.05,1.21.2l-.29-.68c.09-.08.19-.15.31-.23.12-.08.26-.15.4-.21.27-.11.53-.18.8-.21l2.1,4.87c.25.59.54,1.01.86,1.25.32.25.7.28,1.13.09.19-.08.35-.06.48.07s.24.28.31.46.1.36.07.54c-.03.18-.15.32-.36.41-1.09.47-2.02.29-2.81-.53-.13.59-.37,1.12-.74,1.59-.37.47-.85.83-1.44,1.08-.64.28-1.27.38-1.89.31-.61-.07-1.18-.29-1.71-.65-.23,1.36-.9,2.28-2.02,2.76-.14.06-.29.05-.43-.05-.15-.1-.26-.25-.35-.46-.21-.48-.11-.8.29-.97ZM46.62,15.05c.34.79.78,1.33,1.34,1.62.55.29,1.15.3,1.78.03.7-.3,1.16-.78,1.38-1.44.22-.66.17-1.38-.17-2.15l-.8-1.86c-.35-.2-.74-.32-1.16-.36-.42-.04-.82.03-1.18.18-.48.21-.84.51-1.1.93-.26.41-.4.88-.42,1.41-.02.53.09,1.07.33,1.64Z"/><path class="f" d="M55.29,4.43c-.33.09-.64.05-.93-.12-.3-.17-.49-.42-.58-.74-.1-.35-.06-.67.11-.95.17-.28.42-.47.76-.56.35-.1.66-.06.95.1.28.16.47.42.57.76.09.34.06.65-.11.94-.16.29-.42.48-.75.57ZM54.6,14.82c.24-.07.49-.21.72-.44.24-.23.44-.53.6-.91.18-.48.27-.99.26-1.54,0-.55-.06-1.09-.17-1.62l-.86-3.14c.1-.06.21-.13.34-.19.13-.06.28-.11.43-.15.27-.07.54-.1.82-.09l1.37,5.03c.17.62.4,1.07.68,1.36.29.29.66.37,1.11.25.2-.05.35,0,.47.13.11.14.2.31.25.5.05.19.05.37-.01.55-.06.18-.2.3-.42.36-1.21.33-2.15-.03-2.82-1.07-.09.31-.2.59-.34.82-.23.4-.52.75-.89,1.05-.36.3-.78.51-1.26.64-.16.04-.31,0-.44-.13s-.22-.29-.27-.48c-.05-.2-.05-.39,0-.56.06-.18.2-.3.42-.36Z"/><path class="f" d="M59.59,14.62c-.16.02-.29-.04-.4-.18-.11-.13-.18-.32-.2-.54-.05-.52.14-.8.57-.84.38-.04.71-.27.97-.69.27-.42.47-1.1.6-2.04l.32-2.16c.31-1.92,1.17-2.96,2.59-3.1.54-.06,1.01.06,1.42.34.4.28.71.68.91,1.21.28-.6.66-1.08,1.16-1.44.5-.36,1.07-.57,1.72-.64.94-.1,1.69.13,2.26.69.57.56.92,1.39,1.03,2.49l.22,2.11c.07.66.2,1.12.41,1.39s.5.38.88.35c.17-.02.3.04.41.18.11.13.17.32.19.56.02.19-.01.37-.1.54-.09.17-.24.26-.47.28-1.74.18-2.72-.8-2.94-2.93l-.24-2.3c-.13-1.3-.71-1.89-1.73-1.79-.53.05-.97.31-1.33.77-.36.46-.61,1.08-.76,1.84-.15.77-.17,1.64-.06,2.63l.23,2.23c-.12.05-.25.09-.39.13-.14.04-.28.07-.41.08-.29.03-.56.02-.82-.04l-.59-5.74c-.05-.47-.15-.82-.29-1.06s-.38-.34-.69-.31c-.25.03-.46.16-.61.41s-.27.63-.35,1.15l-.4,2.66c-.19,1.22-.53,2.13-1.03,2.73s-1.19.95-2.07,1.04Z"/><path class="f" d="M73.74,11.84c.3.03.65-.03,1.06-.18.41-.14.82-.42,1.23-.81.41-.4.77-.96,1.08-1.67.31-.72.51-1.63.61-2.75l.16-1.73-1.33-.12c-.07-.2-.09-.44-.06-.73.03-.29.09-.53.19-.71l1.33.12.29-3.19c.24-.06.52-.08.84-.05.29.03.56.09.82.2l-.29,3.19,2.68.24c.08.2.1.45.08.73-.03.29-.1.52-.21.71l-2.68-.24-.51,5.66c-.03.29-.02.57,0,.85.03.28.11.52.25.72.14.2.37.32.7.35.32.03.62-.03.9-.18.27-.15.51-.3.7-.45.18.16.34.36.47.59.14.23.21.45.23.67-.12.12-.3.26-.55.41-.24.15-.53.28-.87.38-.34.1-.71.14-1.12.1-.72-.06-1.26-.31-1.61-.75-.35-.43-.56-.97-.63-1.62-.57.69-1.21,1.17-1.92,1.46-.71.29-1.41.4-2.11.33-.16-.01-.28-.1-.36-.26-.08-.16-.11-.35-.09-.56.02-.23.09-.41.21-.54.12-.14.29-.19.51-.17Z"/><path class="f" d="M89.79,10.45c-.22-.16-.41-.35-.57-.57-.16-.22-.26-.48-.31-.77l.92-.62c.86-.57,1.56-.91,2.11-1.01.54-.1,1.07-.05,1.57.16.48.2.83.5,1.06.92.23.41.31.89.26,1.43.46-.38.95-.62,1.48-.72.53-.09,1.05-.03,1.58.18,1.09.45,1.6,1.32,1.53,2.61.49-.43,1.02-.69,1.6-.8s1.16-.04,1.74.2c.79.33,1.29.83,1.51,1.51.22.68.14,1.47-.24,2.39l-.96,2.32c-.25.61-.36,1.09-.3,1.42.05.34.26.57.61.72.16.06.25.18.28.35.03.17,0,.36-.1.59-.07.18-.19.32-.34.43-.15.11-.34.12-.55.03-1.62-.67-2.02-1.99-1.2-3.98l.88-2.14c.24-.58.32-1.07.23-1.47-.08-.4-.32-.68-.71-.84-.59-.24-1.2-.1-1.81.43-.62.53-1.17,1.4-1.67,2.59l-1.19,2.88c-.12-.01-.26-.04-.4-.07-.14-.03-.28-.08-.4-.13-.27-.11-.51-.26-.72-.43l1.92-4.65c.27-.66.37-1.21.28-1.65-.08-.45-.35-.76-.79-.95-.4-.17-.82-.15-1.26.04-.44.19-.86.54-1.27,1.04-.41.5-.77,1.13-1.08,1.89l-1.19,2.88c-.13-.01-.26-.04-.4-.07-.14-.03-.28-.08-.4-.13-.28-.11-.51-.26-.7-.43l2.2-5.33c.37-.9.3-1.46-.21-1.67-.17-.07-.39-.07-.65,0-.27.07-.69.29-1.25.69l-1.09.74Z"/><path class="f" d="M102.87,19.96c.33.24.77.32,1.33.22s1.14-.34,1.76-.74c.09-.14.18-.28.28-.42.54-.74,1.17-1.29,1.88-1.65.71-.36,1.44-.52,2.18-.49.74.04,1.44.29,2.08.76.34.25.63.56.86.93s.38.76.44,1.14l.44-.6c.11.03.23.08.36.15.13.07.26.14.39.24.23.17.43.37.58.58l-3.13,4.28c-.38.52-.59.98-.64,1.38-.05.4.11.75.49,1.02.17.12.23.27.19.45-.04.18-.12.35-.23.5-.11.16-.26.27-.43.33-.18.07-.36.03-.54-.1-.95-.7-1.28-1.59-.97-2.68-.57.19-1.16.25-1.75.17-.59-.08-1.14-.31-1.66-.69-.56-.41-.97-.9-1.22-1.47-.25-.57-.35-1.17-.3-1.8-1.29.49-2.42.38-3.41-.34-.13-.09-.19-.23-.18-.4,0-.17.08-.35.21-.54.31-.42.63-.5.98-.24ZM107.6,20.02c-.51.69-.75,1.35-.72,1.97.03.63.32,1.14.87,1.55.61.45,1.26.6,1.94.46.68-.14,1.27-.56,1.77-1.24l1.2-1.63c0-.41-.1-.8-.28-1.18s-.44-.69-.76-.92c-.42-.31-.87-.47-1.35-.48-.48-.01-.96.11-1.43.36-.47.25-.88.62-1.24,1.12Z"/><path class="f" d="M110.7,27.55c-.11-.11-.14-.26-.1-.43.04-.17.14-.33.31-.49.17-.17.35-.25.53-.26.18-.01.34.05.47.19.36.39.88.6,1.57.63.68.03,1.64-.12,2.87-.44l7.06-6.62c.88-.83,1.73-1.27,2.56-1.35.83-.07,1.57.25,2.23.97.6.66.83,1.4.69,2.22-.14.82-.6,1.59-1.37,2.32-.59.55-1.33,1.06-2.22,1.52-.89.46-1.83.84-2.82,1.12.13.11.26.23.39.36.54.57.79,1.19.77,1.85-.02.67-.31,1.26-.88,1.79-.46.43-1.02.65-1.67.65-.66,0-1.33-.18-2.02-.56.04.29.05.59.02.9l-.09.91c-.08.78.08,1.38.48,1.81.11.11.14.25.1.42-.04.17-.15.34-.32.5-.37.35-.71.36-1.01.03-.27-.29-.46-.65-.58-1.08-.11-.43-.16-.91-.13-1.43l.07-1.11c.03-.43.02-.79-.02-1.09s-.16-.6-.34-.89c-.18-.29-.45-.62-.81-1.01-.15.12-.29.25-.43.38l-1.73,1.62c-.11-.06-.22-.14-.34-.23-.12-.09-.22-.18-.31-.28-.19-.2-.35-.44-.49-.71l1.08-1.01c-.8.08-1.48.02-2.02-.18-.54-.2-1.04-.54-1.49-1.02ZM121.62,28.06c-.44-.47-1.03-.68-1.76-.64-.74.04-1.52.3-2.34.79.12.17.28.35.46.54.43.46.87.81,1.34,1.05.46.25.9.37,1.3.38.4,0,.74-.11,1-.36.26-.25.4-.53.4-.86,0-.32-.13-.63-.39-.91ZM124.52,21.29l-5.09,4.78c.98-.17,1.91-.41,2.79-.7.88-.29,1.69-.63,2.41-1.02.72-.39,1.32-.8,1.79-1.25.49-.46.79-.9.9-1.3.11-.41.02-.76-.27-1.07-.6-.64-1.44-.46-2.53.56Z"/><path class="f" d="M117.87,35.22c-.09-.13-.1-.28-.03-.44.07-.16.2-.3.39-.43.43-.29.77-.25,1.01.11.19.29.44.56.73.79s.69.48,1.19.73c.42-.85,1.09-1.58,2.02-2.19.62-.42,1.25-.67,1.88-.75.63-.09,1.22-.02,1.77.21.55.23,1,.6,1.35,1.12.29.44.45.9.47,1.38.02.48-.08.93-.32,1.36-.23.43-.59.8-1.06,1.12-.64.43-1.35.63-2.14.61-.78-.02-1.78-.27-3-.75-.02.47.16.98.52,1.53.19.29.43.55.7.79.27.24.57.45.89.62-.01.22-.1.45-.26.67-.17.22-.35.39-.55.53-.41-.2-.8-.46-1.15-.75-.36-.3-.67-.65-.95-1.06v-.02c-.33-.48-.55-.99-.67-1.51-.12-.53-.13-1.03-.04-1.5-1.24-.56-2.16-1.29-2.75-2.17ZM124.17,35.02c-.79.53-1.33,1.09-1.62,1.69.89.35,1.65.54,2.29.57.64.03,1.16-.09,1.55-.35.36-.24.59-.52.67-.83.09-.31.03-.62-.18-.94-.26-.39-.65-.6-1.17-.62-.52-.02-1.04.14-1.55.48Z"/><path class="f" d="M126.54,51.13c-.25-.72-.31-1.4-.16-2.07.15-.66.48-1.25.98-1.77.51-.52,1.16-.92,1.95-1.2.86-.31,1.69-.41,2.48-.31.79.1,1.48.38,2.08.83.59.45,1.02,1.05,1.29,1.8.14.4.2.82.19,1.26-.02.44-.11.84-.28,1.19l.7-.25c.07.09.14.2.21.33.07.13.13.27.19.41.1.27.15.54.15.81l-5.15,1.83c-.63.22-1.04.46-1.26.73-.21.26-.26.57-.13.94.06.16.03.31-.07.44-.11.13-.27.24-.5.32-.18.06-.36.07-.55.03-.18-.05-.31-.18-.39-.39-.38-1.08-.2-1.96.55-2.65-.54-.18-1.01-.46-1.4-.85-.4-.38-.7-.86-.9-1.43ZM129.89,47.68c-.81.29-1.37.7-1.7,1.23s-.38,1.12-.15,1.77c.25.72.7,1.21,1.35,1.47.64.26,1.36.25,2.16-.03l1.91-.68c.23-.34.37-.71.43-1.13.06-.42.03-.82-.11-1.19-.17-.49-.46-.87-.85-1.16-.39-.28-.85-.45-1.38-.51-.53-.06-1.08.02-1.66.22Z"/><path class="f" d="M128.2,55.53c-.03-.15.02-.29.15-.41.13-.12.3-.2.53-.24.51-.09.8.08.88.5.09.52.39.95.9,1.28.51.33,1.16.55,1.95.66.79.11,1.64.08,2.56-.08.21-.04.41-.09.58-.14.17-.06.32-.11.43-.17.09-.13.24-.27.45-.44.22-.17.45-.32.7-.46s.46-.22.63-.25c.25.1.47.3.65.59.18.29.27.63.28,1.02-.37.3-.86.58-1.47.83.07.35.24.82.49,1.4.15.36.26.66.33.89.07.23.12.42.15.59.11.64-.04,1.19-.45,1.64-.42.45-1.03.75-1.85.9l-2.87.51c-.65.12-1.11.29-1.36.51-.25.22-.35.52-.28.9.03.17-.02.31-.14.42-.13.11-.31.19-.55.24-.19.03-.37.01-.54-.06-.17-.07-.28-.22-.32-.45-.31-1.72.6-2.77,2.71-3.15l2.76-.49c.53-.1.9-.22,1.09-.38.19-.16.26-.39.21-.7-.02-.11-.05-.22-.1-.35-.05-.13-.14-.35-.27-.67-.22-.56-.37-.99-.45-1.28-.19.05-.38.09-.57.12-1.28.23-2.44.24-3.46.05-1.03-.2-1.87-.58-2.52-1.16-.65-.58-1.06-1.31-1.22-2.2Z"/><path class="f" d="M131.49,65.31c0,.3.1.65.29,1.04s.5.76.94,1.13c.44.37,1.04.66,1.78.89.75.23,1.68.33,2.8.31l1.74-.03-.03-1.34c.19-.09.43-.13.72-.14.29,0,.53.03.73.11l.03,1.34,3.2-.06c.09.23.14.5.14.83,0,.29-.03.57-.11.83l-3.2.06.05,2.7c-.19.1-.43.15-.72.16-.29,0-.53-.04-.73-.13l-.05-2.69-5.68.11c-.29,0-.57.04-.85.1-.28.06-.51.17-.69.33-.18.16-.27.4-.27.73s.1.62.28.87c.18.26.36.47.53.65-.14.2-.32.37-.53.53-.21.16-.43.26-.64.3-.14-.11-.29-.27-.47-.5-.18-.23-.34-.5-.48-.82-.14-.32-.21-.69-.22-1.1-.01-.72.17-1.29.56-1.69.39-.4.9-.67,1.54-.8-.75-.49-1.3-1.08-1.66-1.75-.36-.67-.55-1.36-.56-2.06,0-.16.07-.29.22-.38.15-.1.33-.15.55-.16.23,0,.42.05.56.15.15.11.22.27.23.48Z"/><path class="f" d="M28.28,129.62c-.23.75-.72,1.43-1.35,2.06-.12.12-.24.24-.35.37-.67.74-1.63,1.28-2.72,1.73-.83.34-1.7.61-2.63.79-.33.07-.65.17-.97.24-.17.04-.16.12-.16.2.02.48.05.96.07,1.44.02.44.03.89.06,1.33.02.49.06.98.09,1.47.02.4.03.79.05,1.19.03.66.05,1.32.08,1.98.02.39.03.78.04,1.17,0,.21.02.42.05.63.02.13-.06.19-.23.21-.25.03-.5.06-.75.07-.58.03-1.15.05-1.73.07-.37.01-.74.02-1.11.04-.27.01-.35-.03-.36-.22-.02-.49-.03-.98-.05-1.47-.04-.69-.08-1.38-.12-2.07,0-.16,0-.31-.01-.47-.03-.75-.05-1.49-.08-2.24-.01-.43-.02-.86-.03-1.28-.01-.52-.02-1.04-.03-1.56,0-.42-.03-.84-.04-1.26h0s0-.06,0-.09c0-.79,0-1.57,0-2.36-.01-.68-.05-1.37-.08-2.05-.03-.66-.05-1.32-.08-1.98-.02-.43-.05-.87-.06-1.3,0-.34.07-.41.55-.52.81-.19,1.61-.37,2.42-.55.58-.13,1.16-.25,1.75-.35.94-.17,1.89-.14,2.86,0,.74.1,1.43.29,2.08.55.55.22.99.53,1.39.86.41.33.78.69,1.17,1.03.31.27.37.6.48.92.17.5-.02.97-.17,1.44ZM24.56,127.65s-.02-.03-.03-.05c-.04-.07-.12-.14-.21-.18-.02,0-.04-.01-.06-.02-.03-.02-.06-.05-.09-.07-.17-.13-.39-.17-.6-.17-.44-.12-.89-.2-1.39-.15-.21.02-.45.02-.64.08-.69.21-1.38.41-1.96.77.03.75.05,1.51.1,2.27.05.77-.04,1.53.08,2.34.17-.05.28-.08.38-.12.14-.05.27-.12.42-.15,1-.19,1.92-.48,2.75-.89.28-.14.57-.29.8-.46.21-.16.37-.35.53-.54.03-.04.06-.07.09-.11.29-.29.47-.66.5-1.13.03-.57-.26-1.05-.65-1.42Z"/><path class="f" d="M43.15,136.43c0,.31,0,.65-.01,1.06,0,.44-.02.88-.03,1.32v.04c0,.33-.02.67-.03,1.01-.01.29-.02.58-.04.88l-.02.54c0,.12,0,.25-.01.37,0,.14-.01.29-.02.43-.01.29-.03.59-.04.88l-.02.4s0,.05,0,.07v.31c-.01.26-.02.52-.02.78,0,.04,0,.07,0,.11l-.03.28-1.93-.27-.02-.25c0-.06-.01-.11-.01-.17v-.41c-.28.21-.57.42-.92.55-.34.12-.66.22-.97.28-.56.12-1.12.23-1.68.35-.12.02-.24.04-.4.06-.06,0-.12.01-.18.01-.13,0-.26-.02-.39-.05-.74-.2-1.3-.37-1.81-.56-.53-.19-.97-.49-1.3-.88-.11-.13-.22-.25-.34-.37-.13-.14-.27-.28-.4-.44l-.02-.03c-.06-.07-.13-.16-.18-.27-.22-.48-.38-.99-.5-1.58-.05-.26-.07-.51-.09-.74-.01-.16-.02-.32-.05-.48-.05-.35,0-.7.04-1.03.01-.08.02-.17.03-.25.04-.36.11-.72.17-1.07l.04-.2c.02-.37.2-.66.39-.92.27-.37.53-.69.78-.95.15-.15.31-.3.45-.42.14-.13.32-.22.54-.3.49-.17,1-.3,1.49-.43l.33-.09c.06-.01.11-.02.15-.03.58-.07,1.25-.14,1.93-.13h.09c.12,0,.25,0,.38.02.11.01.26.03.4.08.53.21,1.1.44,1.64.77.18.11.36.23.53.36,0-.13,0-.26.01-.39,0-.15.02-.29.04-.43,0-.05.01-.1.02-.14,0-.05.02-.09.04-.12l.06-.14h.16s1.74.06,1.74.06v.2c.01.07.02.13.02.19,0,.14.02.27.02.41,0,.57.01,1.13.01,1.7ZM36.78,143.28s.11-.02.22-.03c.13-.02.28-.04.37-.05.14-.03.28-.07.42-.11.4-.13.76-.31,1.1-.49.05-.03.1-.07.15-.11.05-.05.1-.11.16-.17l.04-.05c.3-.33.56-.71.78-1.04.01-.02.02-.03.03-.05l.11-.22c.15-.31.31-.64.45-.96.04-.1.06-.19.06-.28,0-.13,0-.26-.02-.4-.02-.24-.07-.5-.14-.8-.05-.19-.1-.34-.21-.45-.02-.02-.03-.04-.04-.05l-.08-.1c-.16-.2-.3-.38-.47-.56-.11-.12-.2-.21-.29-.29l-.03-.03c-.38-.49-.94-.86-1.54-1.02l-.04-.02c-.1-.05-.2-.08-.33-.1-.11-.01-.16-.02-.2-.03-.01,0-.02,0-.03,0-.12,0-.23,0-.35.02-.12.01-.23.02-.38.02-.3,0-.58.08-.88.24-.33.18-.66.39-1.1.69-.08.05-.14.11-.18.18-.03.05-.06.1-.1.15l-.03.04c-.25.27-.44.6-.56.98l-.02.04c-.05.1-.1.21-.15.32-.05.11-.1.22-.14.34-.03.07-.06.14-.08.21-.02.05-.02.1,0,.15v.03s0,.03,0,.03c0,.09-.01.18-.02.27h0c0,.06,0,.11.02.17.08.24.18.48.31.74.12.25.24.43.35.59.18.24.39.48.67.77.06.06.12.12.18.18.06.06.13.13.19.19.12.13.27.24.47.37.11.07.21.14.31.21.12.08.22.16.34.23.09.05.19.09.29.13.07.03.14.05.22.09.02,0,.05,0,.14.02Z"/><path class="f" d="M44.88,128.96c.02-.11.03-.23.05-.34.03-.21.07-.41.11-.62.02-.14.09-.25.18-.35.23-.23.45-.46.68-.69.06-.07.14-.11.23-.12.17-.03.34-.07.52-.08.13-.01.27,0,.37.11.08.09.18.17.25.26.26.3.49.62.66.99.04.1.06.2.03.29-.1.33-.2.67-.31,1-.02.07-.08.14-.13.2-.14.14-.3.28-.45.41-.08.07-.17.11-.27.12-.48.06-.93-.01-1.33-.29-.15-.1-.26-.25-.39-.38-.03-.03-.04-.07-.07-.1-.11-.12-.15-.25-.13-.41ZM47.51,134.19c0-.15-.01-.29-.02-.44,0-.07,0-.14-.01-.21v-.27s-1.93-.07-1.93-.07h-.21s-.08.2-.08.2c-.01.03-.04.08-.04.14,0,.05-.01.1-.02.15-.02.15-.04.3-.04.46-.01.25-.02.5-.02.74,0,.19,0,.38-.01.57-.01.38-.03.75-.04,1.12l-.07,1.74c0,.21-.02.41-.02.62v.4c-.02.49-.03,1-.03,1.5,0,.66.01,1.33.02,1.98v.6c.01.3.02.61.03.91,0,.06,0,.12.01.19l.03.32,2.17.3.04-.36s0-.08.01-.12c0-.29.01-.58.02-.86v-.3s0-.05,0-.07l.02-.43c.01-.31.03-.63.04-.94,0-.15.01-.31.02-.46,0-.13,0-.26.02-.4l.02-.59c.01-.31.03-.62.04-.93.01-.36.02-.71.03-1.07v-.08c.01-.46.03-.92.03-1.38,0-.44.01-.8.01-1.14,0-.66,0-1.25-.01-1.82Z"/><path class="f" d="M60.35,143c-.01.34-.05.69-.08,1.03,0,.11-.07.16-.18.18-.4.07-.8.12-1.21.15l-.27-2.23c-.02-.18-.04-.37-.07-.55-.07-.45-.12-.91-.23-1.34-.18-.69-.44-1.36-.73-2.02-.17-.38-.42-.68-.72-.95-.35-.33-.78-.51-1.26-.57-.2-.02-.4-.09-.59-.07-.4.04-.79.13-1.17.26-.42.15-.79.37-1.11.65-.02.37-.03.74-.05,1.11-.02.46-.03.92-.05,1.38-.03.74-.07,1.48-.1,2.22,0,.04,0,.09,0,.13,0,.42-.02.84-.02,1.26l.12.94c-.86,0-1.72.02-2.59.02,0-.08,0-.14,0-.18,0-.09,0-.17,0-.26l-.19-.03c-.01-.15-.03-.28-.03-.41-.01-.49-.03-.98-.04-1.46-.02-1.39-.05-2.77-.05-4.16,0-1.02.03-2.04.05-3.06,0-.37.02-.73.04-1.1h3.05c0,.15,0,.29-.01.44,0,.06,0,.11,0,.17.23-.06.47-.09.71-.11.58-.04,1.16-.08,1.74-.08.5,0,.97.1,1.42.3.35.16.67.34.93.64.35.39.72.76,1.06,1.16.49.57.79,1.24,1.02,1.95.24.76.44,1.53.57,2.31.05.28.08.56.09.84.01.48,0,.95-.01,1.43Z"/><path class="f" d="M72.24,139.69c0,.27,0,.52-.01.77-.03.44-.07.88-.12,1.32-.06.53-.17,1.04-.45,1.5-.17.28-.37.54-.61.76-.24.22-.54.36-.87.42-.48.09-.96.22-1.46.19-.43-.02-.86-.04-1.26-.23-.32-.15-.62-.33-.93-.5-.25-.14-.44-.35-.57-.6-.16-.31-.32-.62-.46-.95-.39-.88-.68-1.8-.83-2.76-.05-.3-.1-.6-.15-.91-.07-.42-.14-.85-.19-1.27-.06-.59-.11-1.19-.15-1.79-.03-.54-.04-1.08-.06-1.62-.01-.36-.03-.72-.04-1.1-.08,0-.15-.03-.22-.03-.46,0-.92,0-1.38.01-.21,0-.25-.03-.28-.24,0-.03,0-.05-.01-.08-.02-.19-.03-.39-.05-.58-.02-.21-.03-.41-.04-.64.59-.05,1.17-.09,1.76-.12v-.02c0-.07-.01-.13-.02-.19,0-.3-.02-.61-.02-.91v-.6c-.02-.65-.03-1.32-.03-1.98,0-.35,0-.7.01-1.04h2.47c-.01.27-.02.53-.03.8l-.03.58c0,.13-.01.26-.02.4,0,.15-.01.31-.02.46-.01.31-.03.63-.04.94l-.02.43s0,.05,0,.07v.3c0,.22-.01.43-.02.65.82-.02,1.63-.04,2.45-.06.03.54.07,1.07.1,1.6-.12.01-.21.03-.29.03-.58.02-1.17.03-1.75.05-.09,0-.17.03-.26.04.03.29.05.54.07.8.05.51.1,1.02.13,1.54.04.63.06,1.26.09,1.89.02.4.03.79.08,1.19.03.31.11.61.16.92.08.58.22,1.15.34,1.72.08.37.19.73.36,1.07.09.18.2.35.36.48.23.18.51.26.79.31.26.05.49-.02.7-.17.26-.17.48-.39.69-.63.28-.33.37-.73.41-1.14.02-.22,0-.44,0-.66,0-.17,0-.33,0-.53.58.03,1.14.05,1.71.08Z"/><path class="f" d="M81.37,140.16c0,.29-.03.6-.08.92-.09.58-.26,1.15-.51,1.67-.17.35-.33.62-.53.85-.36.42-.78.73-1.25.93-.43.19-.87.26-1.25.32-.29.04-.58.05-.87.05-.19,0-.37,0-.55,0h-.18c-.25-.01-.5-.03-.73-.06-.09,0-.19-.02-.28-.02-.08,0-.14-.03-.17-.04h-.01s-.31-.11-.31-.11l.08-2.32.43-.04s.07,0,.11,0c.14,0,.29,0,.43,0,.3,0,.6-.01.9-.03.53-.02,1.02-.09,1.48-.21.21-.05.36-.15.48-.3.14-.18.23-.39.3-.58.08-.22.15-.44.17-.66.02-.27,0-.43-.06-.57-.02-.05-.05-.1-.07-.16l-.02-.06s-.03-.04-.04-.04c-.15-.05-.32-.1-.54-.16-.2-.05-.37-.09-.52-.12-.11-.02-.22-.04-.33-.05-.1-.01-.2-.03-.3-.05-.11-.02-.21-.04-.32-.06-.33-.06-.67-.11-1-.19-.38-.09-.75-.25-1.07-.49-.24-.17-.42-.42-.54-.75-.05-.12-.08-.24-.12-.36-.01-.05-.03-.09-.04-.14,0-.03-.03-.09-.03-.17v-.05c-.01-.4-.03-.86.15-1.31.13-.33.29-.62.42-.83.19-.31.45-.58.81-.83.34-.24.71-.3,1.04-.35.27-.04.55-.07.82-.09h.04c.1-.01.19,0,.27,0h.07c.17,0,.33.01.5.03.28.02.55.04.83.06l.26.02c.19.01.39.03.58.04.13.01.27.03.41.04l.57.06.02.43c0,.05,0,.11,0,.18-.03.42-.07.84-.1,1.26,0,.07-.02.27-.19.41-.17.14-.37.13-.44.12-.14-.01-.28-.03-.42-.04l-.36-.04c-.13-.01-.26-.03-.39-.04-.07,0-.13-.01-.2-.02-.18-.02-.35-.04-.51-.04-.17,0-.35.02-.54.04-.09,0-.17.02-.26.02h-.09s-.1.01-.15.02c-.07,0-.17.07-.28.15h-.02s-.02.03-.03.04c-.04.03-.09.07-.16.1,0,0-.01.03-.02.11.03.02.07.05.09.06.14.09.29.14.47.18.23.04.47.09.69.13.13.03.26.05.39.08.08.02.17.03.25.04.15.03.31.05.46.09.17.04.35.1.57.19.2.08.42.18.69.31.25.12.46.31.64.58.12.18.23.37.32.57.06.13.1.28.12.46v.1c.03.24.06.5.05.75Z"/><path class="f" d="M95.57,139.97c-.01.08-.02.16-.03.24-.04.35-.1.7-.17,1.04l-.03.17s0,.01,0,.02c-.02.38-.21.68-.4.95-.27.37-.52.67-.77.93-.15.15-.3.29-.44.41-.15.13-.34.23-.56.31-.48.16-.97.29-1.44.42l-.32.08c-.06.02-.12.02-.16.03-.56.07-1.22.14-1.88.12h-.09c-.12,0-.24,0-.37-.02-.11-.01-.27-.03-.42-.09-.48-.19-1.04-.42-1.56-.73,0,.07,0,.13.01.2.02.38.03.77.05,1.15.02.42.05.85.07,1.27.02.34.03.68.04,1.03.02.57.04,1.14.07,1.71.01.33.02.67.04,1.01,0,.18.02.36.04.54.01.11-.05.17-.2.18-.22.02-.43.05-.65.06-.5.02-1,.04-1.5.06-.32.01-.64.02-.96.03-.24.01-.31-.03-.31-.19-.02-.42-.02-.85-.05-1.27-.03-.6-.07-1.19-.11-1.79,0-.13,0-.27-.01-.4-.02-.64-.05-1.29-.07-1.93-.01-.37-.02-.74-.03-1.11,0-.45-.01-.9-.02-1.35,0-.36-.02-.73-.03-1.09h0s0-.05,0-.08c0-.68,0-1.36,0-2.04-.01-.59-.04-1.18-.07-1.77-.02-.57-.05-1.14-.07-1.71-.02-.38-.05-.75-.05-1.13,0-.29.06-.35.48-.45.7-.16,1.39-.32,2.09-.48.23-.05.46-.1.7-.15.03.23.06.47.09.7.27-.21.56-.42.92-.56.33-.12.64-.21.96-.28.54-.11,1.08-.22,1.62-.33.12-.02.24-.04.39-.06.06,0,.13-.01.19-.01.14,0,.27.02.41.06.72.19,1.26.36,1.76.54.53.2.97.49,1.31.89.1.12.21.23.32.35.13.13.26.27.4.43l.02.03c.06.07.14.17.19.29.21.47.38.98.5,1.55.05.26.07.5.09.73.01.16.02.3.04.46.05.36,0,.7-.04,1.03ZM93.76,139.33v-.05c.01-.08.02-.17.02-.26,0-.04,0-.07-.02-.11-.08-.23-.17-.45-.29-.69-.12-.23-.22-.4-.33-.55-.17-.23-.37-.46-.63-.73-.06-.06-.11-.12-.17-.17-.06-.06-.13-.12-.19-.19-.11-.11-.24-.22-.43-.34-.11-.07-.21-.14-.31-.21-.11-.08-.21-.15-.32-.21-.07-.05-.16-.08-.26-.11-.07-.02-.13-.05-.21-.08-.02,0-.04,0-.09,0-.04,0-.1.02-.2.03-.12.02-.27.04-.35.05-.13.03-.27.06-.39.1-.37.12-.72.29-1.04.47-.04.02-.08.06-.11.09-.05.05-.1.1-.15.16l-.04.05c-.28.31-.53.67-.74.99,0,0-.01.02-.02.03l-.1.21c-.15.31-.3.61-.43.92-.03.08-.05.15-.05.22,0,.12,0,.25.02.37.02.23.07.47.13.76.04.17.08.29.16.36.02.02.04.04.06.07l.07.09c.15.19.29.36.44.53.1.11.19.2.28.27l.04.04c.35.45.87.79,1.41.94h.04s.03.03.03.03c.08.04.17.07.27.08.11.01.17.03.21.03h.02c.1,0,.19,0,.3-.02.11-.01.23-.02.38-.02.26,0,.52-.07.78-.21.31-.17.63-.38,1.05-.66.06-.04.1-.08.14-.14.03-.05.06-.09.09-.14l.02-.03.03-.03c.23-.24.4-.54.51-.89l.02-.06c.05-.1.1-.2.14-.3.05-.11.09-.21.13-.31v-.03c.03-.06.06-.12.08-.18,0-.02,0-.04,0-.07v-.05Z"/><path class="f" d="M108.92,136.43c0,.31,0,.65-.01,1.06,0,.44-.02.88-.03,1.32v.04c0,.33-.02.67-.03,1.01-.01.29-.02.58-.04.88l-.02.54c0,.12,0,.25-.01.37,0,.14-.01.29-.02.43-.01.29-.03.59-.04.88l-.02.4s0,.05,0,.07v.31c-.01.26-.02.52-.02.78,0,.04,0,.07,0,.11l-.03.28-1.93-.27-.02-.25c0-.06-.01-.11-.01-.17v-.41c-.28.21-.57.42-.92.55-.34.12-.66.22-.97.28-.56.12-1.12.23-1.68.35-.12.02-.24.04-.4.06-.06,0-.12.01-.18.01-.13,0-.26-.02-.39-.05-.74-.2-1.3-.37-1.81-.56-.53-.19-.97-.49-1.3-.88-.11-.13-.22-.25-.34-.37-.13-.14-.27-.28-.4-.44l-.02-.03c-.06-.07-.13-.16-.18-.27-.22-.48-.38-.99-.5-1.58-.05-.26-.07-.51-.09-.74-.01-.16-.02-.32-.05-.48-.05-.35,0-.7.04-1.03.01-.08.02-.17.03-.25.04-.36.11-.72.17-1.07l.04-.2c.02-.37.2-.66.39-.92.27-.37.53-.69.78-.95.15-.15.31-.3.45-.42.14-.13.32-.22.54-.3.49-.17,1-.3,1.49-.43l.33-.09c.06-.01.11-.02.15-.03.58-.07,1.25-.14,1.93-.13h.09c.12,0,.25,0,.38.02.11.01.26.03.4.08.53.21,1.1.44,1.64.77.18.11.36.23.53.36,0-.13,0-.26.01-.39,0-.15.02-.29.04-.43,0-.05.01-.1.02-.14,0-.05.02-.09.04-.12l.06-.14h.16s1.74.06,1.74.06v.2c.01.07.02.13.02.19,0,.14.02.27.02.41,0,.57.01,1.13.01,1.7ZM102.56,143.28s.11-.02.22-.03c.13-.02.28-.04.37-.05.14-.03.28-.07.42-.11.4-.13.76-.31,1.1-.49.05-.03.1-.07.15-.11.05-.05.1-.11.16-.17l.04-.05c.3-.33.56-.71.78-1.04.01-.02.02-.03.03-.05l.11-.22c.15-.31.31-.64.45-.96.04-.1.06-.19.06-.28,0-.13,0-.26-.02-.4-.02-.24-.07-.5-.14-.8-.05-.19-.1-.34-.21-.45-.02-.02-.03-.04-.04-.05l-.08-.1c-.16-.2-.3-.38-.47-.56-.11-.12-.2-.21-.29-.29l-.03-.03c-.38-.49-.94-.86-1.54-1.02l-.04-.02c-.1-.05-.2-.08-.33-.1-.11-.01-.16-.02-.2-.03-.01,0-.02,0-.03,0-.12,0-.23,0-.35.02-.12.01-.23.02-.38.02-.3,0-.58.08-.88.24-.33.18-.66.39-1.1.69-.08.05-.14.11-.18.18-.03.05-.06.1-.1.15l-.03.04c-.25.27-.44.6-.56.98l-.02.04c-.05.1-.1.21-.15.32-.05.11-.1.22-.14.34-.03.07-.06.14-.08.21-.02.05-.02.1,0,.15v.03s0,.03,0,.03c0,.09-.01.18-.02.27h0c0,.06,0,.11.02.17.08.24.18.48.31.74.12.25.24.43.35.59.18.24.39.48.67.77.06.06.12.12.18.18.06.06.13.13.19.19.12.13.27.24.47.37.11.07.21.14.31.21.12.08.22.16.34.23.09.05.19.09.29.13.07.03.14.05.22.09.02,0,.05,0,.14.02Z"/><path class="f" d="M112.5,138.87s-.01.07,0,.12v.04s0,.04,0,.04c0,.09-.01.18-.02.27v.02s0,.08.02.13c.08.24.19.49.32.75.13.25.24.43.36.6.18.24.4.49.68.79.06.06.12.12.19.19.07.07.13.13.2.2.12.13.27.24.47.37.11.07.22.15.33.22.12.08.23.16.34.23.08.05.18.09.29.13.07.03.15.05.22.09.02,0,.05,0,.12.01.04,0,.11-.02.22-.03.13-.02.29-.04.37-.06.14-.03.29-.07.42-.11.15-.05.31-.11.48-.19l.41-.18v2.18l-.42.09c-.3.06-.61.12-.91.19-.12.03-.25.05-.41.07-.06,0-.13.01-.19.01-.14,0-.28-.02-.42-.06-.76-.2-1.33-.38-1.86-.57-.55-.2-1.01-.51-1.36-.92-.11-.13-.23-.25-.35-.37-.14-.14-.28-.29-.42-.46l-.02-.03c-.06-.07-.14-.17-.2-.29-.22-.49-.4-1.03-.52-1.63-.06-.27-.08-.52-.1-.77-.01-.16-.03-.33-.05-.49-.05-.37,0-.73.04-1.08.01-.09.02-.17.03-.26.04-.37.11-.74.18-1.1l.04-.18s0-.01,0-.02c.02-.39.21-.7.41-.97.28-.38.54-.71.81-.98.15-.16.31-.3.46-.43.15-.13.34-.24.57-.32.51-.17,1.03-.31,1.53-.44l.34-.09c.06-.02.11-.02.16-.03.6-.07,1.29-.15,1.98-.13h.08c.11,0,.21,0,.31.01l.27.02v2.66l-.42-.19c-.14-.06-.28-.11-.41-.15l-.06-.02c-.09-.05-.19-.08-.31-.09-.11-.01-.17-.03-.21-.03h-.02c-.12,0-.23,0-.34.02-.12.01-.24.03-.39.03-.29,0-.57.08-.86.24-.33.18-.68.4-1.12.7-.07.05-.13.1-.17.17-.03.05-.07.1-.1.16l-.02.03-.02.02c-.25.26-.44.59-.56.98l-.02.05c-.06.11-.11.21-.15.32-.05.11-.1.22-.14.32v.03c-.04.07-.06.13-.09.2Z"/><path class="f" d="M123.47,138.98c-.45-.02-.9-.02-1.35-.04h0c0,.19.01.37.04.54.03.19.07.39.12.59v.04c.03.09.06.17.1.27.02.05.04.09.06.13.02.04.04.08.06.12.08.16.15.29.23.41,0,0,0,0,.01,0,.01.03.03.05.04.08.02.03.04.06.07.09.11.13.23.26.34.39.02.02.04.04.06.07l.1.05s.08.08.11.12c.13.1.29.2.45.29.09.05.18.09.28.14l.08.04s.07.03.1.05c.08.04.16.08.24.11.27.09.52.16.76.23.16.04.32.07.47.08.21.02.42.01.61,0,.17,0,.36,0,.53-.04.19-.03.39-.07.59-.12h.04c.08-.03.17-.06.27-.1.05-.02.09-.04.13-.06.04-.02.08-.04.12-.06.23-.11.42-.21.58-.35.13-.11.26-.22.39-.34.08-.07.17-.14.25-.22.53.39,1.05.77,1.6,1.12-.08.08-.15.16-.23.25-.12.12-.24.23-.36.35l-.15.15c-.11.11-.23.22-.35.32-.15.13-.31.23-.43.31l-.05.03c-.17.11-.34.21-.53.31-.3.14-.62.26-.95.34-.25.06-.51.13-.78.19-.2.04-.39.07-.61.1-.12.01-.23.02-.34.03h-.08c-.28.02-.54-.02-.8-.06h-.05c-.18-.04-.37-.07-.56-.12-.02,0-.03,0-.05,0h-.02c-.14,0-.27-.01-.38-.02-.07,0-.13-.01-.2-.02-.18-.01-.37-.03-.57-.08-.04-.01-.09-.02-.14-.03-.08-.02-.17-.04-.26-.07-.09-.03-.15-.07-.2-.1-.01,0-.02-.01-.03-.02-.27-.14-.54-.28-.81-.42-.03-.02-.07-.03-.1-.05-.08-.04-.16-.08-.25-.13-.14-.1-.28-.21-.4-.31-.08-.06-.14-.13-.21-.19l-.08-.08c-.23-.22-.41-.47-.58-.7l-.04-.06c-.07-.09-.14-.2-.2-.33-.13-.28-.23-.54-.31-.78-.04-.13-.06-.25-.08-.37,0-.04-.01-.08-.02-.12v-.08c-.03-.08-.04-.17-.06-.25-.01-.1-.02-.2-.03-.29v-.05c-.01-.11-.02-.23-.02-.35,0-.11,0-.21.01-.31v-.06s0-.08.01-.13c0-.04,0-.07,0-.11,0-.06,0-.12,0-.18,0-.12,0-.25.02-.38.01-.14.04-.28.08-.4l.04-.16c.04-.16.07-.33.13-.49.07-.2.15-.38.24-.56l.02-.05c.11-.24.22-.48.39-.71l.05-.06c.07-.09.14-.18.21-.27.14-.16.27-.31.42-.45.19-.19.4-.37.59-.54.26-.23.53-.43.81-.6.18-.11.37-.19.55-.27l.05-.02s.03-.01.04-.02c.04-.03.09-.06.14-.08.28-.13.54-.23.78-.31.13-.04.25-.06.37-.08.04,0,.08-.01.12-.02h.08c.08-.03.17-.04.25-.06.1-.01.2-.02.29-.03h.05c.11-.01.23-.02.35-.02.11,0,.21,0,.31.01h.06s.07,0,.11.01h.05s.04,0,.04,0c.04,0,.07,0,.11,0,.04,0,.08,0,.11,0,.12,0,.25,0,.38.02.14.01.28.05.4.08l.16.04c.16.04.33.07.49.13.2.07.38.15.56.23l.05.02c.24.11.48.22.71.39l.06.05c.09.07.18.14.27.21.16.14.31.27.45.42.19.19.37.4.54.59.23.26.43.53.6.81.1.17.17.34.25.5,0,0,0,0,0,0,0,.01,0,.03,0,.04,0,0,0,0,0,.01l.02.04c.06.13.13.31.19.5.04.16.08.31.11.46l.05.21c.04.16.07.33.11.49.02.11.04.22.06.33-.65-.01-1.3.02-1.96.04,0-.01,0-.02-.01-.04-.1,0-.19,0-.29,0-.74,0-1.48-.02-2.22-.04-.35,0-.69-.02-1.04-.04s-.69-.02-1.04-.04c-.66-.03-1.32-.05-1.99-.08ZM128.36,136.94c.18,0,.35.01.53.02-.04-.04-.08-.08-.12-.12-.13-.12-.28-.22-.42-.32-.15-.11-.33-.23-.51-.33-.13-.07-.27-.14-.43-.19-.23-.08-.48-.16-.76-.24-.07-.02-.16-.03-.25-.04h-.11s-.09-.03-.09-.03c-.11-.02-.21-.03-.31-.04-.18-.01-.36-.02-.53,0-.05,0-.1.02-.16.03-.04,0-.08,0-.11-.01-.03,0-.06.01-.08.02-.17.05-.33.09-.5.14-.04,0-.07.02-.11.04-.03.01-.05.03-.08.04,0,0,0,0,0-.01-.13.06-.27.13-.42.22-.04.02-.08.04-.11.06-.04.02-.09.05-.13.07-.09.06-.16.12-.23.18l-.03.03c-.15.14-.29.27-.42.41.37,0,.75,0,1.12,0,.44,0,.88,0,1.33.01.55,0,1.1.02,1.65.04.44.01.87.02,1.31.04Z"/></g></svg>